<?xml version="1.0" encoding="utf-8"?>
<!-- Generator: Adobe Illustrator 21.1.0, SVG Export Plug-In . SVG Version: 6.00 Build 0)  -->
<svg version="1.1" id="Layer_1" xmlns="http://www.w3.org/2000/svg" xmlns:xlink="http://www.w3.org/1999/xlink" x="0px" y="0px"
	 viewBox="-401 -350 442 367" enable-background="new -401 -350 442 367" xml:space="preserve">
<title>GPay Brand Mark</title>
<desc>Created with Sketch.</desc>
<g id="GPay-Light-themed-buttons">
	<g id="GPAY---SVGs" transform="translate(-185.000000, -400.000000)">
		<g id="GPay-Brand-Mark" transform="translate(185.000000, 400.000000)">
			<g id="GPay" transform="translate(0.261474, 0.261474)">
				<g id="Pay" transform="translate(17.615069, 0.825706)">
					<path id="Fill-1" fill="#ffffff" d="M-201.006-199.548v35.73h22.036c5.247,0,9.588-1.765,13.023-5.29
						c3.53-3.521,5.29-7.721,5.29-12.579c0-4.76-1.76-8.909-5.29-12.438c-3.436-3.619-7.776-5.431-13.023-5.431h-22.036V-199.548z
						 M-201.006-151.238v41.448h-13.16v-102.337h34.914c8.871,0,16.391,2.957,22.595,8.862c6.307,5.905,9.452,13.101,9.452,21.578
						c0,8.674-3.145,15.917-9.452,21.724c-6.102,5.816-13.639,8.717-22.595,8.717h-21.754V-151.238z"/>
					<path id="Fill-3" fill="#ffffff" d="M-133.908-131.232c0,3.436,1.453,6.29,4.367,8.58c2.914,2.282,6.315,3.427,10.229,3.427
						c5.538,0,10.46-2.051,14.802-6.145c4.341-4.103,6.512-8.905,6.512-14.426c-4.101-3.247-9.828-4.862-17.168-4.862
						c-5.341,0-9.802,1.29-13.374,3.862C-132.114-138.223-133.908-135.044-133.908-131.232 M-116.877-182.11
						c9.734,0,17.408,2.593,23.04,7.789c5.632,5.196,8.435,12.315,8.435,21.365v43.166H-97.99v-9.717h-0.572
						c-5.436,7.999-12.683,11.998-21.741,11.998c-7.725,0-14.203-2.281-19.391-6.854c-5.204-4.581-7.802-10.289-7.802-17.16
						c0-7.238,2.735-12.998,8.221-17.284c5.486-4.286,12.811-6.435,21.963-6.435c7.819,0,14.263,1.431,19.313,4.285v-3.004
						c0-4.572-1.812-8.451-5.435-11.644c-3.632-3.196-7.862-4.786-12.733-4.786c-7.35,0-13.161,3.094-17.451,9.293l-11.597-7.294
						C-138.814-177.538-129.379-182.11-116.877-182.11"/>
					<g id="Group-7" transform="translate(15.084923, 3.759447)">
						<polygon id="Fill-5" fill="#ffffff" points="-28.231,-183.583 -72.166,-82.683 -85.753,-82.683 -69.439,-117.985
							-98.342,-183.583 -84.027,-183.583 -63.141,-133.274 -62.859,-133.274 -42.545,-183.583 						"/>
					</g>
				</g>
				<g id="G">
					<path id="Fill-8" fill="#4285F4" d="M-236.581-159.347c0-4.141-0.35-8.136-1.013-11.96h-55.514v22.646h31.795
						c-1.363,7.383-5.491,13.664-11.755,17.87v14.707h18.976C-242.981-126.322-236.581-141.456-236.581-159.347"/>
					<path id="Fill-10" fill="#34A853" d="M-293.107-101.881c15.887,0,29.261-5.213,39.016-14.203l-18.976-14.707
						c-5.281,3.555-12.084,5.632-20.04,5.632c-15.353,0-28.385-10.341-33.047-24.275h-19.549v15.147
						C-336.016-115.075-316.104-101.881-293.107-101.881"/>
					<path id="Fill-12" fill="#FABB05" d="M-326.154-149.434c-1.192-3.551-1.846-7.341-1.846-11.255c0-3.91,0.653-7.7,1.846-11.255
						v-15.148h-19.549c-4.004,7.939-6.269,16.904-6.269,26.403c0,9.499,2.265,18.472,6.269,26.402L-326.154-149.434z"/>
					<path id="Fill-14" fill="#E94235" d="M-293.107-196.214c8.674,0,16.451,2.978,22.583,8.819v0.008l16.801-16.784
						c-10.204-9.49-23.506-15.318-39.384-15.318c-22.997,0-42.909,13.186-52.596,32.397l19.549,15.148
						C-321.492-185.878-308.46-196.214-293.107-196.214"/>
				</g>
			</g>
		</g>
	</g>
</g>
</svg>
