<?xml version="1.0" encoding="utf-8"?>
<!-- Generator: Adobe Illustrator 21.1.0, SVG Export Plug-In . SVG Version: 6.00 Build 0)  -->
<svg version="1.1" id="Ebene_1" xmlns="http://www.w3.org/2000/svg" xmlns:xlink="http://www.w3.org/1999/xlink" x="0px" y="0px"
	 viewBox="0 0 263 185.756" enable-background="new 0 0 263 185.756" xml:space="preserve">
<g>
	<polygon fill-rule="evenodd" clip-rule="evenodd" fill="#111111" points="32,1 224.756,1 224.756,185.756 32,185.756 32,1 	"/>
	<path fill-rule="evenodd" clip-rule="evenodd" fill="#0097D5" d="M128.378,131.172c11.3-10.317,18.398-25.22,18.398-41.793
		c0-16.574-7.099-31.477-18.398-41.793c-9.933-9.068-23.112-14.594-37.573-14.594c-30.911,0-55.971,25.245-55.971,56.387
		c0,31.14,25.06,56.386,55.971,56.386C105.266,145.764,118.445,140.24,128.378,131.172L128.378,131.172z"/>
	<path fill-rule="evenodd" clip-rule="evenodd" fill="#E20025" d="M165.951,32.991c-14.461,0-27.64,5.526-37.572,14.594
		c-2.024,1.848-3.913,3.845-5.651,5.97h11.299c1.546,1.892,2.973,3.885,4.268,5.971H118.46c-1.189,1.917-2.268,3.909-3.226,5.971
		h26.284c0.899,1.932,1.695,3.924,2.374,5.97h-31.029c-0.646,1.945-1.19,3.937-1.625,5.97h34.28
		c0.823,3.85,1.259,7.844,1.259,11.941c0,6.26-1.014,12.284-2.885,17.91h-31.029c0.679,2.045,1.471,4.039,2.37,5.971h26.284
		c-0.959,2.061-2.034,4.054-3.223,5.971H118.46c1.294,2.085,2.721,4.079,4.266,5.97h11.3c-1.738,2.125-3.624,4.123-5.648,5.971
		c9.933,9.068,23.112,14.593,37.572,14.593c30.911,0,55.971-25.245,55.971-56.386C221.921,58.237,196.862,32.991,165.951,32.991
		L165.951,32.991z"/>
	<path fill-rule="evenodd" clip-rule="evenodd" fill="#E20025" d="M214.469,120.81c0-1.006,0.809-1.822,1.808-1.822
		c0.999,0,1.808,0.816,1.808,1.822c0,1.005-0.809,1.82-1.808,1.82C215.278,122.631,214.469,121.815,214.469,120.81L214.469,120.81z
		 M216.276,122.194c0.759,0,1.374-0.619,1.374-1.383c0-0.765-0.615-1.385-1.374-1.385c-0.759,0-1.375,0.619-1.375,1.385
		C214.902,121.575,215.518,122.194,216.276,122.194L216.276,122.194z M216.033,121.609h-0.371v-1.6h0.672
		c0.139,0,0.283,0.003,0.405,0.082c0.131,0.088,0.203,0.242,0.203,0.4c0,0.18-0.105,0.349-0.275,0.413l0.293,0.706h-0.411
		l-0.243-0.633h-0.272V121.609v-0.907h0.205c0.075,0,0.158,0.005,0.225-0.032c0.061-0.038,0.093-0.113,0.093-0.183
		c0-0.061-0.037-0.132-0.09-0.163c-0.064-0.038-0.168-0.029-0.237-0.029h-0.196v0.408V121.609L216.033,121.609z"/>
	<path fill-rule="evenodd" clip-rule="evenodd" fill="#FFFFFF" d="M202.632,101.599c0-1.005,0.81-1.821,1.807-1.821
		c0.999,0,1.808,0.816,1.808,1.821c0,1.006-0.809,1.821-1.808,1.821C203.442,103.42,202.632,102.605,202.632,101.599
		L202.632,101.599z M204.439,102.983c0.759,0,1.373-0.619,1.373-1.384c0-0.764-0.615-1.384-1.373-1.384
		c-0.759,0-1.374,0.619-1.374,1.384C203.065,102.363,203.68,102.983,204.439,102.983L204.439,102.983z M204.195,102.397h-0.371
		v-1.599h0.672c0.139,0,0.283,0.003,0.404,0.082c0.131,0.087,0.203,0.242,0.203,0.399c0,0.18-0.104,0.35-0.275,0.413l0.293,0.705
		h-0.411l-0.243-0.632h-0.272V102.397v-0.906h0.205c0.076,0,0.16,0.006,0.225-0.031c0.061-0.039,0.094-0.114,0.094-0.183
		c0-0.062-0.038-0.132-0.09-0.163c-0.064-0.039-0.168-0.03-0.237-0.03h-0.197v0.407V102.397L204.195,102.397z"/>
	<polygon fill-rule="evenodd" clip-rule="evenodd" fill="#FFFFFF" points="83.813,103.42 76.847,103.42 80.987,81.444
		71.455,103.42 65.103,103.42 63.942,81.57 59.789,103.42 53.466,103.42 58.869,74.833 69.739,74.833 70.314,92.531 77.978,74.833
		89.305,74.833 83.813,103.42 	"/>
	<path fill-rule="evenodd" clip-rule="evenodd" fill="#FFFFFF" d="M161.663,103.134c-1.907,0.528-3.396,0.755-5.005,0.755
		c-3.565,0-5.51-1.801-5.51-5.106c0-0.654,0.072-1.35,0.206-2.086l0.423-2.275l0.326-1.84l3.229-17.752h6.928l-1.004,5.339h3.555
		l-0.956,5.652h-3.569l-1.836,9.699c-0.082,0.426-0.12,0.746-0.12,0.963c0,1.2,0.721,1.723,2.378,1.723
		c0.793,0,1.408-0.073,1.878-0.218L161.663,103.134L161.663,103.134z"/>
	<path fill-rule="evenodd" clip-rule="evenodd" fill="#FFFFFF" d="M182.009,80.362c-0.583-0.232-0.721-0.232-0.788-0.251
		c-0.369-0.082-0.567-0.13-0.6-0.136c-0.211-0.039-0.446-0.058-0.701-0.058c-2.288,0-3.935,1.027-6.068,3.775l0.615-3.523h-6.308
		l-4.247,23.251h6.971c2.493-14.219,3.563-16.71,6.907-16.71c0.25,0,0.543,0.02,0.879,0.059l0.815,0.168L182.009,80.362
		L182.009,80.362z"/>
	<path fill-rule="evenodd" clip-rule="evenodd" fill="#FFFFFF" d="M134.05,87.516c0,2.938,1.642,4.961,5.366,6.48
		c2.854,1.167,3.295,1.51,3.295,2.565c0,1.448-1.258,2.1-4.044,2.1c-2.105,0-4.06-0.285-6.318-0.919l-0.966,5.363l0.312,0.053
		l1.292,0.237c0.414,0.072,1.029,0.141,1.841,0.204c1.676,0.13,2.973,0.193,3.887,0.193c7.436,0,10.872-2.454,10.872-7.758
		c0-3.19-1.436-5.062-4.968-6.471c-2.955-1.176-3.296-1.437-3.296-2.522c0-1.253,1.172-1.897,3.449-1.897
		c1.384,0,3.272,0.131,5.064,0.349l1.003-5.382c-1.825-0.251-4.592-0.456-6.201-0.456C136.754,79.655,134.025,83.227,134.05,87.516
		L134.05,87.516z"/>
	<path fill-rule="evenodd" clip-rule="evenodd" fill="#FFFFFF" d="M106.459,103.42h-5.789l0.135-2.41
		c-1.763,1.907-4.113,2.812-7.307,2.812c-3.775,0-6.365-2.589-6.365-6.35c0-5.663,4.501-8.964,12.237-8.964
		c0.793,0,1.801,0.063,2.839,0.179c0.216-0.764,0.275-1.094,0.275-1.51c0-1.539-1.215-2.115-4.468-2.115
		c-1.989,0-4.237,0.252-5.789,0.648l-0.965,0.247l-0.625,0.151l0.966-5.227c3.474-0.895,5.765-1.235,8.34-1.235
		c5.986,0,9.151,2.362,9.151,6.82c0,1.147-0.105,2.018-0.566,4.607l-1.456,8.248l-0.245,1.481l-0.178,1.181l-0.119,0.808
		L106.459,103.42L106.459,103.42z M101.377,93.062c-0.73-0.077-1.052-0.096-1.557-0.096c-3.948,0-5.948,1.19-5.948,3.538
		c0,1.447,0.976,2.372,2.499,2.372C99.211,98.875,101.257,96.499,101.377,93.062L101.377,93.062z"/>
	<path fill-rule="evenodd" clip-rule="evenodd" fill="#FFFFFF" d="M129.313,102.917c-2.388,0.638-4.698,0.948-7.139,0.943
		c-7.787-0.005-11.847-3.577-11.847-10.415c0-7.981,5.164-13.857,12.174-13.857c5.735,0,9.396,3.291,9.396,8.451
		c0,1.714-0.249,3.383-0.855,5.74h-13.85c-0.053,0.359-0.067,0.518-0.067,0.731c0,2.696,2.065,4.07,6.111,4.07
		c2.488,0,4.737-0.454,7.234-1.471L129.313,102.917L129.313,102.917z M125.602,89.085c0.038-0.485,0.058-0.881,0.058-1.187
		c0-1.888-1.221-2.996-3.295-2.996c-2.216,0-3.801,1.486-4.444,4.167L125.602,89.085L125.602,89.085z"/>
	<path fill-rule="evenodd" clip-rule="evenodd" fill="#FFFFFF" d="M203.664,92.879c-1.042,7.734-6.403,11.165-13.531,11.165
		c-7.881,0-11.066-4.818-11.066-10.717c0-8.24,5.391-13.823,13.717-13.823c7.226,0,11.064,4.592,11.064,10.492
		C203.849,91.431,203.847,91.527,203.664,92.879L203.664,92.879z M196.49,89.904c0-2.432-0.98-4.728-3.837-4.728
		c-3.553,0-5.757,4.233-5.757,7.97c0,3.152,1.51,5.27,4.001,5.224c1.51,0,4.729-2.072,5.367-5.691
		C196.413,91.835,196.49,90.909,196.49,89.904L196.49,89.904z"/>
</g>
</svg>
