<?xml version="1.0" encoding="utf-8"?>
<!-- Generator: Adobe Illustrator 21.1.0, SVG Export Plug-In . SVG Version: 6.00 Build 0)  -->
<svg version="1.1" id="Ebene_1" xmlns="http://www.w3.org/2000/svg" xmlns:xlink="http://www.w3.org/1999/xlink" x="0px" y="0px"
	 viewBox="0 0 225 165" enable-background="new 0 0 225 165" xml:space="preserve">
<g>
	<polygon fill-rule="evenodd" clip-rule="evenodd" fill="#111111" points="13,3 205.756,3 205.756,161.756 13,161.756 13,3 	"/>
	<path fill-rule="evenodd" clip-rule="evenodd" fill="#F9B41D" d="M109.42,119.041c8.667,7.987,20.307,12.83,32.967,12.83
		c27.189,0,49.195-22.176,49.195-49.45c0-27.359-22.006-49.535-49.195-49.535c-12.66,0-24.3,4.843-32.967,12.83
		c-9.941,9.091-16.229,22.176-16.229,36.705C93.192,96.95,99.479,110.034,109.42,119.041L109.42,119.041z"/>
	<path fill-rule="evenodd" clip-rule="evenodd" fill="#F9B41D" d="M185.04,109.95c0-0.85,0.68-1.53,1.529-1.53
		c0.935,0,1.614,0.68,1.614,1.53c0,0.935-0.68,1.614-1.614,1.614C185.72,111.564,185.04,110.884,185.04,109.95L185.04,109.95z
		 M186.57,111.224c0.68,0,1.274-0.595,1.274-1.274c0-0.68-0.595-1.19-1.274-1.19c-0.595,0-1.189,0.51-1.189,1.19
		C185.38,110.629,185.975,111.224,186.57,111.224L186.57,111.224z M186.4,110.714h-0.34v-1.444h0.595c0.085,0,0.255,0,0.34,0.085
		c0.17,0.085,0.17,0.17,0.17,0.34c0,0.17-0.085,0.34-0.255,0.34l0.34,0.68h-0.425l-0.17-0.595H186.4V110.714v-0.85h0.17
		c0.085,0,0.17,0,0.17,0c0.085,0,0.085-0.085,0.085-0.17c0-0.085,0-0.085-0.085-0.17c0,0-0.085,0-0.17,0h-0.17v0.34V110.714
		L186.4,110.714z"/>
	<path fill-rule="evenodd" clip-rule="evenodd" fill="#E20025" d="M125.309,77.153c-0.17-1.784-0.51-3.483-0.85-5.268H94.382
		c0.34-1.784,0.85-3.483,1.359-5.183h27.274c-0.595-1.784-1.275-3.569-2.039-5.268H97.865c0.85-1.784,1.784-3.569,2.804-5.268
		h17.418c-1.105-1.784-2.379-3.569-3.739-5.183h-9.941c1.529-1.869,3.229-3.654,5.013-5.268c-8.752-7.902-20.307-12.83-33.052-12.83
		c-27.104,0-49.195,22.176-49.195,49.535c0,27.274,22.091,49.45,49.195,49.45c12.745,0,24.3-4.843,33.052-12.83l0,0l0,0
		c1.784-1.614,3.399-3.314,4.928-5.183h-9.941c-1.359-1.699-2.549-3.399-3.739-5.268h17.418c1.104-1.699,2.039-3.399,2.889-5.268
		H97.865c-0.765-1.699-1.529-3.399-2.124-5.183h27.274c0.595-1.699,1.019-3.484,1.444-5.268c0.34-1.699,0.68-3.484,0.85-5.268
		c0.17-1.699,0.255-3.399,0.255-5.183C125.564,80.636,125.479,78.852,125.309,77.153L125.309,77.153z"/>
	<path fill-rule="evenodd" clip-rule="evenodd" fill="#FFFFFF" d="M185.04,93.891c0-0.935,0.68-1.614,1.529-1.614
		c0.935,0,1.614,0.68,1.614,1.614c0,0.85-0.68,1.615-1.614,1.615C185.72,95.506,185.04,94.741,185.04,93.891L185.04,93.891z
		 M186.57,95.081c0.68,0,1.274-0.51,1.274-1.19c0-0.679-0.595-1.189-1.274-1.189c-0.595,0-1.189,0.51-1.189,1.189
		C185.38,94.571,185.975,95.081,186.57,95.081L186.57,95.081z M186.4,94.571h-0.34v-1.359h0.595c0.085,0,0.255,0,0.34,0
		c0.17,0.085,0.17,0.255,0.17,0.425c0,0.085-0.085,0.255-0.255,0.34l0.34,0.595h-0.425l-0.17-0.51H186.4V94.571v-0.764h0.17
		c0.085,0,0.17,0,0.17-0.085c0.085,0,0.085-0.085,0.085-0.17c0,0,0-0.085-0.085-0.085c0-0.085-0.085,0-0.17,0h-0.17v0.34V94.571
		L186.4,94.571z"/>
	<path fill-rule="evenodd" clip-rule="evenodd" fill="#00336F" d="M92.682,96.695c-1.614,0.425-2.804,0.68-3.993,0.68
		c-2.549,0-4.079-1.614-4.079-4.503c0-0.595,0.085-1.19,0.17-1.869l0.34-1.954l0.255-1.614l2.294-13.934h5.098l-0.595,3.059h3.229
		l-0.765,5.098h-3.229l-1.359,8.326c-0.085,0.425-0.085,0.68-0.085,0.85c0,1.104,0.51,1.529,1.784,1.529
		c0.595,0,1.104-0.085,1.614-0.17L92.682,96.695L92.682,96.695z"/>
	<path fill-rule="evenodd" clip-rule="evenodd" fill="#00336F" d="M109.166,96.525c-1.869,0.51-3.569,0.765-5.438,0.765
		c-5.778,0-9.091-3.059-9.091-9.091c0-7.052,3.908-12.15,9.346-12.15c4.333,0,7.137,2.889,7.137,7.392
		c0,1.53-0.17,2.974-0.595,5.013H99.904c-0.085,0.34-0.085,0.51-0.085,0.68c0,2.379,1.614,3.569,4.673,3.569
		c1.954,0,3.654-0.425,5.523-1.274L109.166,96.525L109.166,96.525z M106.022,84.375c0-0.425,0-0.764,0-1.019
		c0-1.699-0.935-2.634-2.549-2.634c-1.699,0-2.889,1.274-3.399,3.653H106.022L106.022,84.375z"/>
	<polygon fill-rule="evenodd" clip-rule="evenodd" fill="#00336F" points="51.898,96.95 46.631,96.95 49.689,77.663 42.807,96.95
		39.154,96.95 38.729,77.748 35.5,96.95 30.317,96.95 34.48,71.885 42.212,71.885 42.382,87.349 47.565,71.885 56.062,71.885
		51.898,96.95 	"/>
	<path fill-rule="evenodd" clip-rule="evenodd" fill="#00336F" d="M64.728,87.858c-0.51-0.085-0.68-0.085-1.02-0.085
		c-3.059,0-4.588,1.189-4.588,3.059c0,1.274,0.765,2.124,1.954,2.124C63.624,92.956,64.643,90.832,64.728,87.858L64.728,87.858z
		 M68.977,96.95h-4.588l0.085-2.124c-1.19,1.614-2.804,2.464-5.608,2.464c-2.549,0-4.758-2.294-4.758-5.608
		c0-0.935,0.17-1.784,0.425-2.634c0.85-3.144,3.993-5.098,8.836-5.183c0.595,0,1.529,0,2.379,0.085c0.17-0.68,0.17-0.935,0.17-1.359
		c0-1.359-1.104-1.784-3.569-1.784c-1.529,0-3.229,0.255-4.418,0.68l-0.765,0.17l-0.34,0.085l0.764-4.588
		c2.464-0.765,4.249-1.104,6.203-1.104c4.588,0,7.052,2.124,7.052,6.032c0,1.02,0.085,1.784-0.255,3.993l-1.189,7.307l-0.17,1.274
		l-0.085,1.02l-0.085,0.68L68.977,96.95L68.977,96.95z"/>
	<path fill-rule="evenodd" clip-rule="evenodd" fill="#00336F" d="M134.825,76.728c1.529,0,2.889,0.425,4.758,1.359l0.935-5.438
		c-0.51-0.255-0.68-0.255-1.359-0.51l-2.124-0.595c-0.68-0.17-1.529-0.255-2.464-0.255c-2.634,0-4.163,0.085-5.778,1.02
		c-0.85,0.595-1.954,1.36-3.144,2.719l-0.68-0.17l-5.438,3.824l0.255-2.124h-5.608l-3.314,20.392h5.353l1.954-10.96
		c0,0,0.765-1.53,1.105-2.039c1.02-1.274,1.869-1.274,2.974-1.274c0.17,0,0.34,0,0.425,0c-0.17,1.189-0.255,2.464-0.255,3.908
		c0,6.627,3.739,10.791,9.516,10.791c1.445,0,2.719-0.17,4.673-0.68l0.935-5.778c-1.699,0.935-3.229,1.359-4.503,1.359
		c-3.144,0-5.013-2.379-5.013-6.117C128.028,80.636,130.832,76.728,134.825,76.728L134.825,76.728z"/>
	<path fill-rule="evenodd" clip-rule="evenodd" fill="#00336F" d="M179.942,71.885l-1.189,7.137
		c-1.274-1.954-2.804-2.889-4.843-2.889c-2.804,0-5.438,1.615-7.052,4.673v-0.085l-3.398-2.039l0.34-2.124h-5.693l-3.229,20.392
		h5.268l1.784-10.96c0,0,1.359-1.53,1.699-2.039c0.85-1.02,1.699-1.19,2.379-1.274c-0.595,1.699-0.935,3.738-0.935,6.032
		c0,5.098,2.634,8.497,6.542,8.497c1.954,0,3.484-0.68,4.928-2.294l-0.255,2.039h5.013l4.079-25.065H179.942L179.942,71.885z
		 M173.4,92.107c-1.784,0-2.719-1.359-2.719-3.993c0-3.993,1.699-6.882,4.163-6.882c1.869,0,2.804,1.445,2.804,3.993
		C177.648,89.303,175.949,92.107,173.4,92.107L173.4,92.107z"/>
	<path fill-rule="evenodd" clip-rule="evenodd" fill="#00336F" d="M148.845,87.858c-0.51-0.085-0.68-0.085-1.02-0.085
		c-3.059,0-4.588,1.189-4.588,3.059c0,1.274,0.765,2.124,1.954,2.124C147.74,92.956,148.76,90.832,148.845,87.858L148.845,87.858z
		 M153.093,96.95h-4.673l0.17-2.124c-1.19,1.614-2.804,2.464-5.608,2.464c-2.634,0-4.928-2.209-4.928-5.608
		c0-4.843,3.654-7.817,9.431-7.817c0.595,0,1.529,0,2.294,0.085c0.17-0.68,0.255-0.935,0.255-1.359c0-1.359-1.104-1.784-3.654-1.784
		c-1.444,0-3.229,0.255-4.418,0.68l-0.68,0.17l-0.34,0.085l0.765-4.588c2.464-0.765,4.248-1.104,6.203-1.104
		c4.588,0,6.967,2.124,6.967,6.032c0,1.02,0.17,1.784-0.255,3.993l-1.104,7.307l-0.17,1.274l-0.17,1.02l-0.085,0.68V96.95
		L153.093,96.95z"/>
	<path fill-rule="evenodd" clip-rule="evenodd" fill="#00336F" d="M80.107,80.891c1.02,0,2.464,0.085,3.993,0.34l0.765-4.758
		c-1.53-0.17-3.569-0.425-4.758-0.425c-5.948,0-7.902,3.229-7.902,6.967c0,2.464,1.105,4.248,3.993,5.608
		c2.124,1.019,2.464,1.189,2.464,2.124c0,1.274-1.104,2.039-3.144,2.039c-1.614,0-3.144-0.255-4.843-0.85l-0.595,4.673l0.085,0.085
		l1.02,0.17c0.34,0.085,0.765,0.17,1.36,0.255c1.274,0.085,2.379,0.17,3.059,0.17c5.948,0,8.411-2.294,8.411-6.797
		c0-2.804-1.359-4.503-3.993-5.693c-2.294-1.02-2.549-1.189-2.549-2.124C77.473,81.741,78.493,80.891,80.107,80.891L80.107,80.891z"
		/>
	<path fill-rule="evenodd" clip-rule="evenodd" fill="#FFFFFF" d="M141.962,71.035l-0.935,5.438
		c-1.869-0.935-3.229-1.359-4.758-1.359c-3.993,0-6.797,3.908-6.797,9.431c0,3.823,1.869,6.117,5.013,6.117
		c1.274,0,2.804-0.425,4.503-1.274l-0.935,5.693c-1.954,0.51-3.229,0.765-4.673,0.765c-5.778,0-9.346-4.164-9.346-10.876
		c0-8.921,4.928-15.209,11.98-15.209c0.935,0,1.784,0.085,2.464,0.255l2.124,0.51C141.283,70.78,141.453,70.865,141.962,71.035
		L141.962,71.035z"/>
	<path fill-rule="evenodd" clip-rule="evenodd" fill="#FFFFFF" d="M124.799,74.774c-0.17,0-0.34,0-0.51,0
		c-1.784,0-2.804,0.85-4.418,3.314l0.51-3.144h-4.843l-3.314,20.392h5.353c1.954-12.49,2.464-14.614,5.013-14.614
		c0.17,0,0.17,0,0.34,0c0.51-2.464,1.189-4.249,2.039-5.863L124.799,74.774L124.799,74.774z"/>
	<path fill-rule="evenodd" clip-rule="evenodd" fill="#FFFFFF" d="M94.042,95.081c-1.444,0.51-2.634,0.68-3.824,0.68
		c-2.719,0-4.248-1.53-4.248-4.503c0-0.51,0.085-1.19,0.17-1.784l0.34-2.039l0.255-1.614l2.294-13.935h5.268l-0.595,3.059h2.719
		l-0.68,5.013h-2.719l-1.445,8.497c-0.085,0.34-0.085,0.595-0.085,0.85c0,1.02,0.51,1.445,1.784,1.445c0.595,0,1.105,0,1.445-0.17
		L94.042,95.081L94.042,95.081z"/>
	<path fill-rule="evenodd" clip-rule="evenodd" fill="#FFFFFF" d="M73.565,81.401c0,2.549,1.189,4.333,3.993,5.693
		c2.209,1.02,2.549,1.359,2.549,2.209c0,1.275-0.935,1.869-3.059,1.869c-1.614,0-3.059-0.255-4.758-0.765l-0.765,4.673l0.255,0.085
		l0.935,0.17c0.34,0.085,0.764,0.17,1.444,0.17c1.189,0.17,2.209,0.17,2.889,0.17c5.608,0,8.242-2.124,8.242-6.797
		c0-2.804-1.104-4.418-3.738-5.693c-2.294-1.02-2.549-1.274-2.549-2.209c0-1.105,0.935-1.614,2.634-1.614
		c1.02,0,2.464,0.085,3.824,0.255l0.764-4.673c-1.359-0.255-3.483-0.425-4.673-0.425C75.604,74.519,73.48,77.663,73.565,81.401
		L73.565,81.401z"/>
	<path fill-rule="evenodd" clip-rule="evenodd" fill="#FFFFFF" d="M182.661,95.335h-5.013l0.255-1.954
		c-1.445,1.529-2.974,2.209-4.928,2.209c-3.909,0-6.458-3.314-6.458-8.412c0-6.797,3.993-12.575,8.667-12.575
		c2.124,0,3.654,0.935,5.098,2.804l1.19-7.137h5.268L182.661,95.335L182.661,95.335z M174.844,90.577
		c2.464,0,4.163-2.889,4.163-6.882c0-2.634-0.935-3.993-2.804-3.993c-2.379,0-4.164,2.804-4.164,6.797
		C172.04,89.218,172.975,90.577,174.844,90.577L174.844,90.577z"/>
	<path fill-rule="evenodd" clip-rule="evenodd" fill="#FFFFFF" d="M110.355,94.911c-1.869,0.595-3.569,0.85-5.523,0.85
		c-5.948,0-9.007-3.144-9.007-9.176c0-6.967,3.908-12.15,9.261-12.15c4.418,0,7.222,2.889,7.222,7.392c0,1.53-0.17,2.974-0.68,5.098
		h-10.536c-0.085,0.255-0.085,0.425-0.085,0.595c0,2.379,1.615,3.569,4.673,3.569c1.954,0,3.654-0.34,5.523-1.274L110.355,94.911
		L110.355,94.911z M107.381,82.76c0-0.425,0-0.764,0-1.02c0-1.699-0.935-2.634-2.549-2.634c-1.699,0-2.889,1.275-3.399,3.654
		H107.381L107.381,82.76z"/>
	<polygon fill-rule="evenodd" clip-rule="evenodd" fill="#FFFFFF" points="53.258,95.335 47.99,95.335 51.049,76.048 44.166,95.335
		40.513,95.335 40.088,76.218 36.859,95.335 31.931,95.335 36.095,70.27 43.742,70.27 43.997,85.819 49.094,70.27 57.421,70.27
		53.258,95.335 	"/>
	<path fill-rule="evenodd" clip-rule="evenodd" fill="#FFFFFF" d="M66.428,86.244c-0.51,0-0.765-0.085-1.19-0.085
		c-2.974,0-4.503,1.105-4.503,3.144c0,1.275,0.68,2.039,1.869,2.039C64.813,91.342,66.343,89.303,66.428,86.244L66.428,86.244z
		 M70.336,95.335h-4.418l0.085-2.124c-1.359,1.699-3.144,2.464-5.608,2.464c-2.889,0-4.843-2.209-4.843-5.523
		c0-5.013,3.398-7.902,9.346-7.902c0.595,0,1.36,0.085,2.209,0.17c0.17-0.68,0.17-0.935,0.17-1.274c0-1.359-0.935-1.869-3.399-1.869
		c-1.529,0-3.229,0.17-4.418,0.51l-0.765,0.255l-0.51,0.085l0.765-4.588c2.634-0.765,4.418-1.02,6.373-1.02
		c4.588,0,7.052,2.039,7.052,5.948c0,1.02-0.085,1.784-0.425,4.079l-1.19,7.222l-0.17,1.274l-0.085,1.02l-0.085,0.765L70.336,95.335
		L70.336,95.335z"/>
	<path fill-rule="evenodd" clip-rule="evenodd" fill="#FFFFFF" d="M150.544,86.244c-0.595,0-0.85-0.085-1.19-0.085
		c-3.059,0-4.588,1.105-4.588,3.144c0,1.275,0.765,2.039,1.954,2.039C148.845,91.342,150.459,89.303,150.544,86.244L150.544,86.244z
		 M154.453,95.335h-4.418l0.085-2.124c-1.359,1.699-3.144,2.464-5.608,2.464c-2.889,0-4.843-2.209-4.843-5.523
		c0-5.013,3.399-7.902,9.346-7.902c0.595,0,1.36,0.085,2.124,0.17c0.17-0.68,0.255-0.935,0.255-1.274
		c0-1.359-0.935-1.869-3.398-1.869c-1.53,0-3.314,0.17-4.503,0.51l-0.68,0.255l-0.51,0.085l0.765-4.588
		c2.634-0.765,4.418-1.02,6.372-1.02c4.588,0,6.967,2.039,6.967,5.948c0,1.02,0,1.784-0.425,4.079l-1.104,7.222l-0.17,1.274
		l-0.17,1.02l-0.085,0.765V95.335L154.453,95.335z"/>
	<path fill-rule="evenodd" clip-rule="evenodd" fill="#FFFFFF" d="M168.727,74.774c-0.17,0-0.34,0-0.51,0
		c-1.784,0-2.804,0.85-4.418,3.314l0.51-3.144h-4.843l-3.229,20.392h5.268c1.954-12.49,2.464-14.614,5.013-14.614
		c0.17,0,0.17,0,0.34,0c0.51-2.464,1.19-4.249,2.039-5.863L168.727,74.774L168.727,74.774z"/>
</g>
</svg>
