<?xml version="1.0" encoding="utf-8"?>
<!-- Generator: Adobe Illustrator 21.1.0, SVG Export Plug-In . SVG Version: 6.00 Build 0)  -->
<svg version="1.1" id="Ebene_1" xmlns="http://www.w3.org/2000/svg" xmlns:xlink="http://www.w3.org/1999/xlink" x="0px" y="0px"
	 viewBox="0 0 841.89 595.28" enable-background="new 0 0 841.89 595.28" xml:space="preserve">
<g>
	<defs>
		<rect id="SVGID_1_" x="156.673" y="76.614" width="518.368" height="415.546"/>
	</defs>
	<clipPath id="SVGID_2_">
		<use xlink:href="#SVGID_1_"  overflow="visible"/>
	</clipPath>
	<path clip-path="url(#SVGID_2_)" d="M167.993,450.146c0,16.221,4.616,36.045,29.537,29.388l166.481-79.752
		c16.905-9.333,29.523-13.161,29.523-29.381v-99.748c2.12-28.313-16.335-36.581-29.523-29.381L197.53,321.013
		c-20.08,9.713-29.537,13.154-29.537,29.381V450.146z"/>
	<path clip-path="url(#SVGID_2_)" fill="#9C9E9F" d="M373.425,250.118c-1.324,0-2.707,0.37-3.997,1.079l-170.696,81.785
		c-18.71,8.983-19.433,10.242-19.433,17.41v99.755c0,19.402,6.639,19.402,9.143,19.402c1.518,0,3.268-0.232,5.218-0.698
		l165.465-79.268c1.974-1.107,4.43-2.396,6.764-3.617c14.353-7.517,16.342-9.409,16.342-15.564l0.028-100.592
		c0.591-7.832-0.795-14.181-3.797-17.414C377.052,250.882,375.361,250.118,373.425,250.118 M188.44,492.16h-0.007
		c-9.547,0-31.746-4.098-31.746-42.013v-99.755c0-22.31,14.236-29.143,32.262-37.794l170.174-81.526
		c4.07-2.237,9.201-3.565,14.302-3.565c8.243,0,15.92,3.378,21.612,9.506c5.173,5.577,11.048,15.996,9.803,34.046v99.344
		c0,20.688-14.471,28.264-28.461,35.595c-2.196,1.148-4.506,2.358-6.905,3.683l-169.026,80.775
		C196.214,491.586,192.171,492.16,188.44,492.16"/>
	<path clip-path="url(#SVGID_2_)" d="M393.534,353.908c0,20.429-4.623,45.388-29.509,37.006L197.671,290.481
		c-16.898-11.753-29.509-16.573-29.509-37.002V127.852c-2.113-35.65,16.318-46.065,29.509-36.995l166.353,100.426
		c20.052,12.234,29.509,16.567,29.509,37.002V353.908z"/>
	<path clip-path="url(#SVGID_2_)" fill="#9C9E9F" d="M368.72,380.542c1.663,0.488,3.136,0.733,4.388,0.733
		c8.465,0,9.118-20.948,9.118-27.365V228.287c0-12.41-2.898-14.516-20.349-25.083l-3.741-2.272L191.827,100.533
		c-3.562-2.389-4.872-1.843-6.919,0.318c-1.553,1.646-6.521,8.399-5.463,26.331l0.024,126.294c0,10.871,3.873,13.918,17.31,22.787
		c2.341,1.539,4.793,3.164,7.348,4.938L368.72,380.542z M373.108,403.886c-3.973,0-8.243-0.761-12.69-2.261l-2.237-1.034
		l-166.353-100.43c-3.005-2.061-5.308-3.579-7.5-5.028c-13.506-8.911-27.469-18.133-27.469-41.657V127.854
		c-1.407-23.358,5.526-36.076,11.591-42.511c9.443-10.01,24.319-11.591,35.626-3.804l169.51,102.321
		c18.143,10.986,31.255,18.921,31.255,44.426V353.91C404.84,397.389,384.958,403.886,373.108,403.886"/>
	<path clip-path="url(#SVGID_2_)" d="M663.722,450.146c0,16.221-4.616,36.045-29.537,29.388l-166.481-79.752
		c-16.905-9.333-29.523-13.161-29.523-29.381v-99.748c-2.12-28.313,16.335-36.581,29.523-29.381l166.481,79.741
		c20.08,9.713,29.537,13.154,29.537,29.381V450.146z"/>
	<path clip-path="url(#SVGID_2_)" fill="#9C9E9F" d="M453.257,252.398c-3.005,3.233-4.388,9.582-3.8,17.414l0.031,100.592
		c0,6.152,1.988,8.043,16.342,15.564c2.331,1.221,4.789,2.51,6.764,3.617l165.465,79.264c1.95,0.47,3.7,0.702,5.218,0.702
		c2.504,0,9.139,0,9.139-19.402v-99.755c0-7.168-0.719-8.427-19.43-17.41l-170.696-81.785c-1.29-0.709-2.673-1.079-3.997-1.079
		C456.355,250.119,454.661,250.883,453.257,252.398 M631.27,490.456l-169.026-80.779c-2.4-1.321-4.71-2.531-6.905-3.679
		c-13.99-7.331-28.461-14.91-28.461-35.595V271.06c-1.245-18.05,4.63-28.468,9.803-34.046c5.692-6.127,13.368-9.506,21.612-9.506
		c5.1,0,10.232,1.328,14.302,3.565l170.174,81.526c18.026,8.652,32.262,15.484,32.262,37.794v99.755
		c0,37.915-22.199,42.013-31.746,42.013h-0.007C639.541,492.161,635.502,491.587,631.27,490.456"/>
	<path clip-path="url(#SVGID_2_)" d="M438.182,353.908c0,20.429,4.623,45.388,29.509,37.006l166.353-100.433
		c16.898-11.753,29.509-16.573,29.509-37.002V127.852c2.113-35.65-16.318-46.065-29.509-36.995L467.691,191.282
		c-20.052,12.234-29.509,16.567-29.509,37.002V353.908z"/>
	<path clip-path="url(#SVGID_2_)" fill="#9C9E9F" d="M627.59,281.2c2.552-1.774,5.004-3.396,7.344-4.938
		c13.441-8.869,17.313-11.912,17.313-22.784l0.021-126.294c1.062-17.936-3.907-24.689-5.46-26.335
		c-2.047-2.158-3.358-2.708-6.919-0.315L473.578,200.933l-3.738,2.268c-17.452,10.571-20.353,12.676-20.353,25.083v125.623
		c0,6.418,0.657,27.365,9.122,27.365c1.252,0,2.721-0.245,4.385-0.733L627.59,281.2z M426.876,353.908V228.285
		c0-25.502,13.109-33.441,31.252-44.426L627.642,81.541c11.304-7.787,26.179-6.21,35.623,3.8
		c6.065,6.438,12.998,19.153,11.594,42.511v125.627c0,23.524-13.963,32.742-27.469,41.657c-2.196,1.445-4.499,2.967-7.5,5.028
		l-166.357,100.43l-2.237,1.034c-4.443,1.497-8.714,2.258-12.687,2.258C446.755,403.884,426.876,397.391,426.876,353.908"/>
</g>
</svg>
