<?xml version="1.0" encoding="utf-8"?>
<!-- Generator: Adobe Illustrator 21.1.0, SVG Export Plug-In . SVG Version: 6.00 Build 0)  -->
<svg version="1.1" id="Ebene_1" xmlns="http://www.w3.org/2000/svg" xmlns:xlink="http://www.w3.org/1999/xlink" x="0px" y="0px"
	 viewBox="0 0 735.694 595.28" enable-background="new 0 0 735.694 595.28" xml:space="preserve">
<g>
	<defs>
		<rect id="SVGID_1_" y="2.665" width="735.694" height="589.763"/>
	</defs>
	<clipPath id="SVGID_2_">
		<use xlink:href="#SVGID_1_"  overflow="visible"/>
	</clipPath>
	<path clip-path="url(#SVGID_2_)" d="M16.066,532.8c0,23.021,6.552,51.156,41.92,41.709l236.278-113.187
		c23.993-13.245,41.901-18.678,41.901-41.699V278.055c3.008-40.183-23.183-51.917-41.901-41.699L57.986,349.528
		c-28.498,13.785-41.92,18.668-41.92,41.699V532.8z"/>
	<path clip-path="url(#SVGID_2_)" fill="#9C9E9F" d="M307.624,248.911c-1.88,0-3.843,0.525-5.673,1.531L59.691,366.515
		c-26.555,12.75-27.58,14.536-27.58,24.709v141.577c0,27.536,9.422,27.536,12.976,27.536c2.154,0,4.638-0.329,7.405-0.991
		l234.835-112.5c2.802-1.57,6.287-3.401,9.599-5.133c20.371-10.669,23.193-13.353,23.193-22.089l0.039-142.765
		c0.839-11.116-1.129-20.126-5.388-24.714C312.772,249.995,310.373,248.911,307.624,248.911 M45.086,592.428h-0.01
		c-13.55,0-45.056-5.815-45.056-59.627V391.224c0-31.663,20.204-41.361,45.787-53.639L287.327,221.88
		c5.776-3.175,13.059-5.06,20.298-5.06c11.7,0,22.594,4.795,30.672,13.491c7.342,7.916,15.68,22.702,13.913,48.32v140.993
		c0,29.362-20.538,40.114-40.394,50.518c-3.116,1.629-6.395,3.347-9.8,5.227l-239.89,114.64
		C56.118,591.614,50.381,592.428,45.086,592.428"/>
	<path clip-path="url(#SVGID_2_)" d="M336.164,396.214c0,28.994-6.561,64.416-41.881,52.52L58.187,306.195
		c-23.983-16.681-41.881-23.522-41.881-52.516V75.384c-2.999-50.597,23.159-65.378,41.881-52.506l236.097,142.53
		c28.459,17.363,41.881,23.512,41.881,52.516V396.214z"/>
	<path clip-path="url(#SVGID_2_)" fill="#9C9E9F" d="M300.947,434.014c2.361,0.692,4.451,1.04,6.228,1.04
		c12.014,0,12.941-29.73,12.941-38.838V217.926c0-17.613-4.112-20.602-28.881-35.599l-5.31-3.224L49.892,36.612
		c-5.055-3.391-6.915-2.616-9.82,0.451c-2.203,2.336-9.256,11.92-7.754,37.371l0.034,179.243c0,15.429,5.496,19.753,24.567,32.341
		c3.322,2.184,6.802,4.49,10.429,7.008L300.947,434.014z M307.175,467.145c-5.639,0-11.7-1.08-18.011-3.21l-3.175-1.467
		L49.892,319.934c-4.265-2.925-7.533-5.079-10.644-7.136c-19.169-12.647-38.985-25.735-38.985-59.121V75.386
		c-1.997-33.15,7.842-51.2,16.45-60.333C30.115,0.846,51.227-1.397,67.275,9.655l240.577,145.219
		c25.75,15.591,44.359,26.854,44.359,63.052v178.291C352.211,457.924,323.993,467.145,307.175,467.145"/>
	<path clip-path="url(#SVGID_2_)" d="M719.629,532.8c0,23.021-6.552,51.156-41.92,41.709L441.43,461.322
		c-23.993-13.245-41.901-18.678-41.901-41.699V278.055c-3.008-40.183,23.183-51.917,41.901-41.699l236.278,113.173
		c28.498,13.785,41.92,18.668,41.92,41.699V532.8z"/>
	<path clip-path="url(#SVGID_2_)" fill="#9C9E9F" d="M420.926,252.146c-4.265,4.589-6.228,13.599-5.393,24.714l0.044,142.765
		c0,8.731,2.822,11.415,23.193,22.089c3.308,1.732,6.797,3.563,9.599,5.133l234.835,112.495c2.768,0.667,5.251,0.996,7.405,0.996
		c3.553,0,12.971,0,12.971-27.536V391.225c0-10.173-1.021-11.96-27.575-24.709l-242.26-116.073
		c-1.831-1.006-3.793-1.531-5.673-1.531C425.323,248.912,422.919,249.996,420.926,252.146 M673.571,590.01l-239.89-114.645
		c-3.406-1.875-6.684-3.592-9.8-5.222c-19.856-10.404-40.394-21.161-40.394-50.518V278.632c-1.767-25.617,6.571-40.404,13.913-48.32
		c8.078-8.696,18.973-13.491,30.672-13.491c7.239,0,14.521,1.884,20.298,5.06l241.519,115.705
		c25.583,12.279,45.787,21.976,45.787,53.639v141.577c0,53.811-31.506,59.627-45.056,59.627h-0.01
		C685.31,592.429,679.578,591.615,673.571,590.01"/>
	<path clip-path="url(#SVGID_2_)" d="M399.531,396.214c0,28.994,6.561,64.416,41.881,52.52l236.097-142.539
		c23.983-16.681,41.881-23.522,41.881-52.516V75.384c2.999-50.597-23.159-65.378-41.881-52.506l-236.097,142.53
		c-28.459,17.363-41.881,23.512-41.881,52.516V396.214z"/>
	<path clip-path="url(#SVGID_2_)" fill="#9C9E9F" d="M668.348,293.023c3.622-2.518,7.101-4.819,10.424-7.008
		c19.076-12.588,24.572-16.906,24.572-32.336l0.029-179.243c1.507-25.455-5.546-35.04-7.749-37.376
		c-2.905-3.062-4.765-3.843-9.82-0.447l-236.038,142.49l-5.305,3.219c-24.768,15.002-28.886,17.991-28.886,35.599v178.291
		c0,9.108,0.932,38.838,12.946,38.838c1.777,0,3.862-0.348,6.223-1.04L668.348,293.023z M383.486,396.214V217.923
		c0-36.193,18.604-47.461,44.354-63.052L668.422,9.657c16.043-11.052,37.155-8.814,50.557,5.393
		c8.608,9.138,18.447,27.183,16.455,60.333V253.68c0,33.386-19.817,46.469-38.986,59.121c-3.116,2.051-6.385,4.211-10.644,7.136
		L449.703,462.471l-3.175,1.467c-6.306,2.125-12.367,3.205-18.006,3.205C411.699,467.143,383.486,457.926,383.486,396.214"/>
</g>
</svg>
