<svg id="Ebene_1" data-name="Ebene 1" xmlns="http://www.w3.org/2000/svg" xmlns:xlink="http://www.w3.org/1999/xlink" viewBox="0 0 567.11 387.28"><defs><style>.cls-1{fill:none;}.cls-2{clip-path:url(#clip-path);}.cls-3{fill:#1a171b;}.cls-4{fill:#fff;}</style><clipPath id="clip-path" transform="translate(-8.24 -10.26)"><rect class="cls-1" x="8.24" y="10.26" width="567.11" height="387.28"/></clipPath></defs><title>GABANNA LOGO finaly2</title><g class="cls-2"><path class="cls-3" d="M553,242.11q-8.85-22.8-17.71-45.79h-4.1l-37.4,91.58h4l32.51-79.29q7.66,20,15.33,39.65T561,287.89h9.78q-9-23-17.84-45.79M426.65,196.31H416.48l6.87,10V288H427V211.91L478.85,288H484V196.31h-3.7v78.76Zm-77.31,0H339.17l6.87,10V288h3.7V211.91L401.54,288h5.15V196.31H403v78.76Zm-30.53,45.79q-8.85-22.8-17.71-45.79H297l-37.4,91.58h4l32.51-79.29q7.66,20,15.33,39.65t15.46,39.64h9.78q-9-23-17.84-45.79m-91.71,1.65a23.08,23.08,0,0,1,8.33,1.52,21,21,0,0,1,6.87,4.23,20.47,20.47,0,0,1,4.63,6.41,18.93,18.93,0,0,1,1.72,8.06,18.49,18.49,0,0,1-1.72,8,19.86,19.86,0,0,1-4.62,6.28,20.62,20.62,0,0,1-6.87,4.1,24,24,0,0,1-8.33,1.45H202.66v-40Zm-8.19-43.61a19.11,19.11,0,0,1,7.73,1.59,19.67,19.67,0,0,1,6.28,4.29,21.29,21.29,0,0,1,4.23,6.28,18.67,18.67,0,0,1,1.59,7.67,19.12,19.12,0,0,1-1.59,7.73,21,21,0,0,1-4.23,6.34,19.67,19.67,0,0,1-6.28,4.3,19.13,19.13,0,0,1-7.73,1.58H202.66V200.15ZM193.54,288h38.85a23.51,23.51,0,0,0,9.45-1.92,24.2,24.2,0,0,0,12.82-12.75,23.89,23.89,0,0,0,.26-18.1,24.58,24.58,0,0,0-4.49-7.27,25.3,25.3,0,0,0-6.67-5.29,22.55,22.55,0,0,0-8.33-2.64,24.53,24.53,0,0,0,8.13-8.46A22.55,22.55,0,0,0,246.66,220a23.19,23.19,0,0,0-6.94-16.65,24.57,24.57,0,0,0-7.53-5,23,23,0,0,0-9.18-1.85H193.54Zm-28-45.92q-8.85-22.8-17.71-45.79h-4.1l-37.4,91.58h4l32.51-79.29q7.66,20,15.33,39.65t15.46,39.64h9.78q-9-23-17.84-45.79M41.76,196.78A47.8,47.8,0,0,0,16.52,222a47.33,47.33,0,0,0,0,37A49.12,49.12,0,0,0,26.7,274.15a47.78,47.78,0,0,0,15.07,10.24,46,46,0,0,0,18.57,3.77,46,46,0,0,0,18.57-3.77A47.82,47.82,0,0,0,94,274.15,49.15,49.15,0,0,0,104.14,259a45.69,45.69,0,0,0,3.77-18.44v-1.32H60.33V243H100a45.25,45.25,0,0,1-3.7,16.25,44.28,44.28,0,0,1-8.66,13.08,40.82,40.82,0,0,1-12.36,8.79,35.15,35.15,0,0,1-14.93,3.24,35.7,35.7,0,0,1-15.46-3.44,40.27,40.27,0,0,1-12.69-9.38,44.39,44.39,0,0,1-8.52-13.88,46.32,46.32,0,0,1-3.1-17,46.83,46.83,0,0,1,3.1-17.11,44.2,44.2,0,0,1,8.52-13.94,40.29,40.29,0,0,1,12.69-9.38,36.45,36.45,0,0,1,32,.53,41.93,41.93,0,0,1,13.21,10.71l3.83-4.49a47.92,47.92,0,0,0-15.07-10.18,46.27,46.27,0,0,0-18.5-3.7,46,46,0,0,0-18.57,3.77" transform="translate(-8.24 -10.26)"/><path class="cls-3" d="M457.49,370.86v1a3.41,3.41,0,0,1,1.37.34,4.08,4.08,0,0,1,1.7,1.76l7,12.73v5.64a3.93,3.93,0,0,1-.7,2.77,4.41,4.41,0,0,1-2.84.73v1h13.29v-1a4.72,4.72,0,0,1-2.79-.68q-.74-.63-.74-2.82v-7.06l7.32-11.93a3,3,0,0,1,1.16-1.08,7.49,7.49,0,0,1,1.46-.39v-1h-8.43v1a9.64,9.64,0,0,1,2.4.36,1.32,1.32,0,0,1,.8,1.35,5.41,5.41,0,0,1-.66,2,14.69,14.69,0,0,1-.82,1.52l-4.12,6.74h0l-5.07-9.21q-.37-.8-.48-1.11a1.83,1.83,0,0,1-.1-.57.76.76,0,0,1,.56-.79,12.66,12.66,0,0,1,2.55-.3v-1Zm-41.1,25.91h22.21l1.55-8.69H439q-1.7,4.42-4.05,5.94a10.45,10.45,0,0,1-5.81,1.53,5.49,5.49,0,0,1-2.59-.41,1.84,1.84,0,0,1-.66-1.69V375.33q0-2.27.78-2.85a6,6,0,0,1,3.12-.65v-1H416.39v1a5.91,5.91,0,0,1,2.3.45,2.31,2.31,0,0,1,1.09,2.25V393.1a2.34,2.34,0,0,1-1.14,2.29,5.57,5.57,0,0,1-2.25.41Zm-42.67,0h13.8v-1a7.63,7.63,0,0,1-3.17-.44q-1-.48-1-2.26v-8.93q3.09,0,4.28,1.42a8.82,8.82,0,0,1,1.58,4.53h1v-13h-1a10,10,0,0,1-1.66,4.36q-1.09,1.37-4.2,1.31V374a1.81,1.81,0,0,1,.46-1.43,3.82,3.82,0,0,1,2.14-.38q4.53,0,6.22,1.43t2.4,5h.94v-7.73H373.72v1a6.2,6.2,0,0,1,2.36.47,2.34,2.34,0,0,1,1,2.25V393.1a2.35,2.35,0,0,1-1.07,2.25,5.44,5.44,0,0,1-2.34.45Zm-37.28-13.22v-9.76a1.53,1.53,0,0,1,.48-1.26,3.53,3.53,0,0,1,2-.38,3.94,3.94,0,0,1,3.89,2.19,8.28,8.28,0,0,1,.62,3.52q0,3.63-1.62,4.63a11,11,0,0,1-5.38,1.06m-9.59,13.22h13v-1a2.8,2.8,0,0,1-3.37-3.5v-7.51h0l8.94,12h8v-.92a3,3,0,0,1-.88-.18,1.58,1.58,0,0,1-.67-.59l-8.15-10.92a9.42,9.42,0,0,0,3.9-1.72,5.81,5.81,0,0,0,2.41-4.92q0-4.23-4.61-5.86a19.81,19.81,0,0,0-6.22-.81H326.85v1a5.35,5.35,0,0,1,2.53.61q.84.67.84,2.89v17q0,2.13-.71,2.77a4.41,4.41,0,0,1-2.66.73Zm-22.34,0,1.55-8H305a11.8,11.8,0,0,1-4.12,5.34,11.32,11.32,0,0,1-6,1.42,5,5,0,0,1-2.57-.44,1.9,1.9,0,0,1-.63-1.66v-9.29q3.28,0,4.54,1.34a8.23,8.23,0,0,1,1.68,4.61h1v-13h-1a9.17,9.17,0,0,1-1.78,4.48q-1.16,1.23-4.44,1.19V374a1.76,1.76,0,0,1,.48-1.45,4.29,4.29,0,0,1,2.24-.36q4.62,0,6.38,1.37t2.48,5.07h.94v-7.73H282.1v1a5.91,5.91,0,0,1,2.3.45,2.3,2.3,0,0,1,1.11,2.25V393.1a2.35,2.35,0,0,1-1.07,2.25,5.44,5.44,0,0,1-2.34.45v1Zm-66.81-18.18h1.11q.35-4.11,3.11-5.61a9.83,9.83,0,0,1,4.31-.88v20.2a3.91,3.91,0,0,1-.74,2.8,4.51,4.51,0,0,1-3,.7v1h13.67v-1a4.75,4.75,0,0,1-3.08-.69,3.9,3.9,0,0,1-.74-2.81v-20.2a9.58,9.58,0,0,1,4.31.88q2.56,1.47,3.11,5.61h1.11l0-7.73H237.75Zm-44.75,0h1.1q.36-4.11,3.11-5.61a9.83,9.83,0,0,1,4.31-.88v20.2a3.91,3.91,0,0,1-.74,2.8,4.51,4.51,0,0,1-3,.7v1h13.67v-1a4.75,4.75,0,0,1-3.08-.69,3.9,3.9,0,0,1-.74-2.81v-20.2a9.59,9.59,0,0,1,4.31.88q2.56,1.47,3.11,5.61h1.1l0-7.73H193Zm-47.22-7.73v1a4.74,4.74,0,0,1,2.57.78q.57.56.57,2.72v12.84a10.19,10.19,0,0,0,1.29,5.42q2.43,4,9,4,5.05,0,7.41-2.66t2.36-7.55V375.07a3.26,3.26,0,0,1,.59-2.37,5.64,5.64,0,0,1,2.42-.87v-1h-8.43v1a4.72,4.72,0,0,1,3,.95,4.06,4.06,0,0,1,.76,2.84v11.73a11.94,11.94,0,0,1-.86,5q-1.55,3.28-6,3.28a4.74,4.74,0,0,1-4.81-3,11.69,11.69,0,0,1-.69-4.52V375.33q0-2.2.75-2.81a5.29,5.29,0,0,1,3-.69v-1Zm-35.26,22.37v-9.59a9.35,9.35,0,0,1,4.59.77q2.42,1.35,2.42,5.43a7,7,0,0,1-1.1,4.21q-1.09,1.48-3.81,1.48a1.88,1.88,0,0,1-1.8-.82,3.09,3.09,0,0,1-.3-1.48m0-10.75v-8.61a1.85,1.85,0,0,1,.47-1.45,2.6,2.6,0,0,1,1.67-.4,3.14,3.14,0,0,1,3.06,1.5,7.8,7.8,0,0,1,.79,3.69q0,3-1.22,4.12t-4.77,1.16M101,396.77h12.34a13.82,13.82,0,0,0,7.83-2,6.07,6.07,0,0,0-.13-10.48,10.91,10.91,0,0,0-3.71-1.39v-.36a8.36,8.36,0,0,0,3.75-1.77A4.59,4.59,0,0,0,122.8,377q0-3.91-4.27-5.39a17.59,17.59,0,0,0-5.69-.79H101v1a5.91,5.91,0,0,1,2.3.45,2.32,2.32,0,0,1,1.07,2.25V393.1a2.34,2.34,0,0,1-1.14,2.28,5.5,5.5,0,0,1-2.23.41Z" transform="translate(-8.24 -10.26)"/><path class="cls-4" d="M203.94,142.65c0,5.75,1.64,12.78,10.47,10.42l59-28.26c6-3.31,10.46-4.67,10.46-10.41V79c.75-10-5.79-13-10.46-10.41l-59,28.26c-7.12,3.44-10.47,4.66-10.47,10.41Z" transform="translate(-8.24 -10.26)"/><path class="cls-3" d="M276.75,71.75a3,3,0,0,0-1.42.38l-60.5,29c-6.63,3.18-6.89,3.63-6.89,6.17v35.35c0,6.88,2.35,6.88,3.24,6.88a8.06,8.06,0,0,0,1.85-.25l58.64-28.09c.7-.39,1.57-.85,2.4-1.28,5.09-2.67,5.79-3.33,5.79-5.52V78.73c.21-2.77-.28-5-1.35-6.17a2.37,2.37,0,0,0-1.78-.81m-65.56,85.79h0c-3.38,0-11.25-1.45-11.25-14.89V107.29c0-7.91,5-10.33,11.43-13.4L271.68,65a10.75,10.75,0,0,1,5.07-1.26,10.36,10.36,0,0,1,7.66,3.37c1.83,2,3.92,5.67,3.48,12.07v35.21c0,7.33-5.13,10-10.09,12.62-.78.41-1.6.84-2.45,1.3l-59.91,28.63a16.59,16.59,0,0,1-4.25.6" transform="translate(-8.24 -10.26)"/><path class="cls-4" d="M283.88,108.54c0,7.24-1.64,16.09-10.46,13.12l-59-35.6c-6-4.17-10.46-5.87-10.46-13.12V28.42c-.75-12.64,5.78-16.33,10.46-13.11l59,35.59c7.11,4.34,10.46,5.87,10.46,13.11Z" transform="translate(-8.24 -10.26)"/><path class="cls-3" d="M275.09,118a5.69,5.69,0,0,0,1.56.26c3,0,3.23-7.43,3.23-9.7V64c0-4.4-1-5.14-7.21-8.89l-1.33-.8L212.39,18.74c-1.26-.85-1.73-.65-2.45.11-.55.58-2.31,3-1.94,9.33V72.94c0,3.85,1.37,4.93,6.14,8.08.83.55,1.7,1.12,2.6,1.75Zm1.56,8.27a14.17,14.17,0,0,1-4.5-.8l-.79-.37-59-35.6c-1.06-.73-1.88-1.27-2.66-1.78-4.79-3.16-9.74-6.43-9.74-14.77V28.42c-.5-8.28,2-12.79,4.11-15.07A9.67,9.67,0,0,1,216.73,12l60.08,36.26C283.24,52.16,287.89,55,287.89,64v44.52c0,15.41-7,17.71-11.25,17.71" transform="translate(-8.24 -10.26)"/><path class="cls-4" d="M379.64,142.65c0,5.75-1.64,12.78-10.47,10.42l-59-28.26c-6-3.31-10.46-4.67-10.46-10.41V79c-.75-10,5.79-13,10.46-10.41l59,28.26c7.12,3.44,10.47,4.66,10.47,10.41Z" transform="translate(-8.24 -10.26)"/><path class="cls-3" d="M305,72.56c-1.06,1.15-1.55,3.4-1.35,6.17v35.65c0,2.18.71,2.85,5.79,5.52.83.43,1.7.89,2.4,1.28l58.65,28.09a8,8,0,0,0,1.85.25c.89,0,3.24,0,3.24-6.88V107.29c0-2.54-.26-3-6.89-6.17l-60.5-29a3,3,0,0,0-1.42-.38,2.36,2.36,0,0,0-1.79.81m63.09,84.38-59.91-28.63c-.85-.47-1.67-.9-2.45-1.3-5-2.6-10.09-5.28-10.09-12.62V79.18c-.44-6.4,1.64-10.09,3.48-12.07a10.36,10.36,0,0,1,7.66-3.37A10.76,10.76,0,0,1,311.9,65L372.22,93.9c6.39,3.07,11.43,5.49,11.43,13.4v35.36c0,13.44-7.87,14.89-11.25,14.89h0a16.63,16.63,0,0,1-4.25-.6" transform="translate(-8.24 -10.26)"/><path class="cls-4" d="M299.71,108.54c0,7.24,1.64,16.09,10.46,13.12l59-35.6c6-4.17,10.46-5.87,10.46-13.12V28.42c.75-12.64-5.78-16.33-10.46-13.11l-59,35.59c-7.11,4.34-10.46,5.87-10.46,13.11Z" transform="translate(-8.24 -10.26)"/><path class="cls-3" d="M366.84,82.77c.9-.63,1.77-1.2,2.6-1.75,4.76-3.14,6.14-4.22,6.14-8.08V28.18c.38-6.36-1.38-8.75-1.93-9.33-.73-.77-1.19-1-2.45-.11L312.25,54.32l-1.33.8c-6.18,3.75-7.21,4.49-7.21,8.89v44.52c0,2.28.23,9.7,3.23,9.7a5.67,5.67,0,0,0,1.56-.26ZM295.7,108.54V64c0-9,4.65-11.85,11.08-15.75L366.85,12a9.66,9.66,0,0,1,12.63,1.35c2.15,2.28,4.61,6.79,4.11,15.07V72.95c0,8.34-4.95,11.61-9.74,14.76-.78.51-1.59,1.05-2.66,1.78l-59,35.6-.79.37a14.19,14.19,0,0,1-4.5.8c-4.2,0-11.25-2.3-11.25-17.71" transform="translate(-8.24 -10.26)"/><path class="cls-3" d="M284.44,310.09c-15.81-3.43-27.77,6.62-39.41,11.59-7.83,2.35-31.31,6.29-98.34,3.73-93.85-3.59-129.44-1.92-129.79-1.9a1.59,1.59,0,0,0-1.22.64L8.49,334.2a1.27,1.27,0,0,0-.06,1.42,1.58,1.58,0,0,0,1.36.73h9.69l52.78-2.77,78-.54,39.58,1.08h.08l28.78-.54h18.81l4.8,0c5.6,1,12,1.27,15.33.55,8.41-1.84,6.66-6.43,11.89-10.14,9.87-8.73,27.16-.21,39.23-.46-4.21-6.7-15.29-11.51-24.26-13.45" transform="translate(-8.24 -10.26)"/><path class="cls-3" d="M575.16,317a1.58,1.58,0,0,0-1.36-.72H564.1l-52.78,2.77-78,.54-39.58-1.08h-.08l-28.78.54H346.12l-4.8,0c-5.6-1-12-1.27-15.33-.54-8.41,1.84-6.64,5.76-11.89,10.14-9.87,8.73-27.16.21-39.23.46,4.21,6.7,15.29,11.51,24.26,13.45,17.13,3.71,29.73-8.38,42.32-12.71a94.84,94.84,0,0,1,9.49-1.55c12.48-1.5,37.52-2.9,85.94-1.05,93.86,3.59,129.44,1.92,129.79,1.9a1.59,1.59,0,0,0,1.22-.64l7.2-10.06a1.27,1.27,0,0,0,.06-1.42" transform="translate(-8.24 -10.26)"/></g></svg>