<?xml version="1.0" encoding="utf-8"?>
<!-- Generator: Adobe Illustrator 15.0.2, SVG Export Plug-In . SVG Version: 6.00 Build 0)  -->
<!DOCTYPE svg PUBLIC "-//W3C//DTD SVG 1.1//EN" "http://www.w3.org/Graphics/SVG/1.1/DTD/svg11.dtd">
<svg version="1.1" id="Ebene_1" xmlns="http://www.w3.org/2000/svg" xmlns:xlink="http://www.w3.org/1999/xlink" x="0px" y="0px"
	 width="595.28px" height="841.89px" viewBox="0 0 595.28 841.89" enable-background="new 0 0 595.28 841.89" xml:space="preserve">
<g>
	<path d="M90.742,411.75c-4.776,2.077-8.932,4.885-12.467,8.42c-3.537,3.537-6.343,7.693-8.42,12.467
		c-2.078,4.775-3.117,9.896-3.117,15.363c0,5.396,1.039,10.481,3.117,15.256c2.077,4.775,4.883,8.95,8.42,12.521
		c3.535,3.573,7.691,6.396,12.467,8.475c4.774,2.078,9.896,3.117,15.364,3.117c5.468,0,10.589-1.039,15.365-3.117
		c4.774-2.078,8.929-4.901,12.466-8.475c3.536-3.571,6.343-7.746,8.421-12.521c2.078-4.774,3.117-9.859,3.117-15.256v-1.093h-1.203
		h-5.249h-32.917v3.062h32.807c-0.219,4.811-1.24,9.295-3.062,13.45c-1.823,4.155-4.21,7.765-7.163,10.826
		c-2.952,3.062-6.361,5.486-10.224,7.272c-3.866,1.787-7.983,2.679-12.358,2.679c-4.521,0-8.786-0.946-12.794-2.843
		c-4.011-1.896-7.51-4.484-10.499-7.765c-2.99-3.28-5.341-7.107-7.053-11.482c-1.714-4.374-2.57-9.076-2.57-14.107
		c0-5.029,0.856-9.75,2.57-14.16c1.712-4.412,4.063-8.258,7.053-11.537c2.989-3.281,6.488-5.869,10.499-7.766
		c4.008-1.895,8.273-2.843,12.794-2.843c4.884,0,9.441,1.094,13.67,3.281c4.227,2.187,7.873,5.139,10.935,8.859l3.172-3.72
		c-3.573-3.571-7.729-6.378-12.467-8.42c-4.74-2.04-9.842-3.062-15.31-3.062C100.638,408.634,95.516,409.673,90.742,411.75
		L90.742,411.75z M193.153,449.259c-4.885-12.576-9.77-25.207-14.654-37.892h-3.39l-30.948,75.784h3.281l26.902-65.614
		c4.227,11.009,8.456,21.945,12.685,32.807c4.227,10.864,8.492,21.801,12.795,32.808h8.092
		C202.957,474.466,198.036,461.835,193.153,449.259L193.153,449.259z M216.336,487.26h7.546h24.605c2.77,0,5.375-0.527,7.819-1.585
		c2.441-1.056,4.555-2.478,6.343-4.265c1.785-1.786,3.207-3.882,4.264-6.288s1.586-4.993,1.586-7.765
		c0-2.551-0.456-4.957-1.366-7.217c-0.912-2.26-2.151-4.266-3.719-6.016c-1.568-1.749-3.408-3.207-5.521-4.374
		c-2.116-1.164-4.413-1.895-6.891-2.187c2.77-1.75,5.013-4.082,6.726-6.999c1.713-2.915,2.57-6.124,2.57-9.623
		c0-2.697-0.512-5.23-1.531-7.602c-1.021-2.368-2.424-4.429-4.21-6.178c-1.787-1.75-3.865-3.134-6.233-4.156
		c-2.37-1.02-4.904-1.531-7.6-1.531h-24.387V487.26L216.336,487.26z M237.332,414.539c2.259,0,4.392,0.438,6.398,1.312
		c2.004,0.875,3.735,2.061,5.194,3.555c1.458,1.495,2.625,3.227,3.5,5.193c0.875,1.969,1.312,4.084,1.312,6.344
		s-0.437,4.393-1.312,6.396c-0.875,2.006-2.042,3.756-3.5,5.25c-1.459,1.494-3.19,2.678-5.194,3.553
		c-2.006,0.875-4.139,1.313-6.398,1.313h-13.45v-32.917H237.332L237.332,414.539z M244.113,450.626c2.405,0,4.702,0.42,6.889,1.257
		c2.187,0.84,4.082,2.007,5.688,3.5c1.602,1.495,2.879,3.264,3.827,5.305c0.947,2.042,1.422,4.265,1.422,6.67
		c0,2.406-0.475,4.611-1.422,6.616c-0.948,2.006-2.226,3.736-3.827,5.194c-1.605,1.459-3.5,2.589-5.688,3.391
		c-2.187,0.803-4.484,1.203-6.889,1.203h-20.231v-33.136H244.113L244.113,450.626z M320.005,449.259
		c-4.885-12.576-9.77-25.207-14.653-37.892h-3.391l-30.947,75.784h3.28l26.902-65.614c4.227,11.009,8.456,21.945,12.685,32.807
		c4.228,10.864,8.492,21.801,12.795,32.808h8.093C329.811,474.466,324.89,461.835,320.005,449.259L320.005,449.259z
		 M345.268,411.368h-8.421l5.687,8.311v67.582h3.062v-62.989l42.868,62.989h4.266v-6.232v-69.66h-3.062v65.176L345.268,411.368
		L345.268,411.368z M409.24,411.368h-8.421l5.687,8.311v67.582h3.062v-62.989l42.867,62.989h4.265v-6.232v-69.66h-3.062v65.176
		L409.24,411.368L409.24,411.368z M513.783,449.259c-4.885-12.576-9.771-25.207-14.653-37.892h-3.39l-30.948,75.784h3.28
		l26.902-65.614c4.227,11.009,8.456,21.945,12.685,32.807c4.229,10.864,8.493,21.801,12.795,32.808h8.093
		C523.588,474.466,518.667,461.835,513.783,449.259L513.783,449.259z"/>
	<path d="M161.207,573.951h8.797c2.323,0,4.183-0.469,5.58-1.408c1.397-0.938,2.096-2.165,2.096-3.678
		c0-1.619-0.73-2.883-2.189-3.791c-0.748-0.463-1.629-0.792-2.644-0.988v-0.253c0.962-0.178,1.854-0.599,2.677-1.262
		c0.823-0.663,1.235-1.561,1.235-2.69c0-1.859-1.015-3.141-3.044-3.844c-1.077-0.374-2.429-0.561-4.058-0.561h-8.45v0.693
		c0.792,0.044,1.339,0.15,1.642,0.318c0.507,0.274,0.761,0.809,0.761,1.604v13.243c0,0.801-0.272,1.344-0.814,1.628
		c-0.321,0.169-0.85,0.268-1.589,0.294V573.951L161.207,573.951z M167.975,563.766v-6.142c0-0.498,0.111-0.843,0.334-1.034
		c0.222-0.191,0.618-0.286,1.188-0.286c1.077,0,1.804,0.355,2.182,1.067c0.379,0.712,0.568,1.588,0.568,2.629
		c0,1.407-0.29,2.385-0.868,2.938C170.8,563.49,169.666,563.766,167.975,563.766L167.975,563.766L167.975,563.766z M167.975,571.428
		v-6.836c1.486-0.025,2.576,0.156,3.271,0.549c1.148,0.64,1.722,1.931,1.722,3.871c0,1.299-0.261,2.301-0.781,3.004
		c-0.521,0.703-1.427,1.054-2.717,1.054c-0.632,0-1.059-0.196-1.281-0.587C168.055,572.259,167.984,571.909,167.975,571.428
		L167.975,571.428L167.975,571.428z M193.112,555.476v0.693c0.952,0.106,1.563,0.292,1.835,0.559
		c0.271,0.265,0.407,0.912,0.407,1.938v9.152c0,1.577,0.307,2.864,0.921,3.862c1.157,1.879,3.306,2.817,6.448,2.817
		c2.403,0,4.165-0.631,5.286-1.895c1.122-1.265,1.682-3.058,1.682-5.38v-8.744c0-0.881,0.14-1.443,0.421-1.688
		c0.28-0.245,0.856-0.452,1.728-0.621v-0.693h-6.007v0.693c1.05,0.08,1.756,0.306,2.116,0.675c0.361,0.369,0.541,1.044,0.541,2.022
		v8.364c0,1.541-0.205,2.738-0.614,3.594c-0.739,1.559-2.158,2.339-4.259,2.339c-1.691,0-2.834-0.705-3.43-2.114
		c-0.33-0.757-0.494-1.832-0.494-3.223v-9.161c0-1.044,0.178-1.712,0.534-2.005c0.355-0.292,1.063-0.455,2.122-0.491v-0.693H193.112
		L193.112,555.476z M226.778,560.989h0.788c0.169-1.954,0.908-3.289,2.216-4.003c0.712-0.384,1.735-0.593,3.07-0.629v14.401
		c0,0.997-0.176,1.663-0.527,1.997c-0.352,0.334-1.062,0.501-2.129,0.501v0.694h9.744v-0.694c-1.112,0-1.844-0.165-2.195-0.493
		c-0.352-0.33-0.528-0.998-0.528-2.005v-14.401c1.362,0.036,2.385,0.245,3.071,0.629c1.219,0.696,1.957,2.031,2.216,4.003h0.787
		l-0.027-5.513h-16.459L226.778,560.989L226.778,560.989z M258.684,560.989h0.787c0.169-1.954,0.907-3.289,2.216-4.003
		c0.712-0.384,1.736-0.593,3.071-0.629v14.401c0,0.997-0.177,1.663-0.528,1.997s-1.062,0.501-2.129,0.501v0.694h9.745v-0.694
		c-1.113,0-1.846-0.165-2.196-0.493c-0.352-0.33-0.527-0.998-0.527-2.005v-14.401c1.361,0.036,2.386,0.245,3.07,0.629
		c1.219,0.696,1.958,2.031,2.216,4.003h0.788l-0.027-5.513h-16.46L258.684,560.989L258.684,560.989z M306.313,573.951l1.107-5.687
		h-0.761c-0.854,1.86-1.834,3.129-2.937,3.805c-1.104,0.676-2.528,1.014-4.272,1.014c-0.926,0-1.537-0.104-1.835-0.312
		c-0.299-0.209-0.448-0.604-0.448-1.183v-6.621c1.559,0,2.638,0.318,3.238,0.955s0.998,1.733,1.194,3.29h0.694v-9.236h-0.694
		c-0.293,1.548-0.716,2.613-1.269,3.196c-0.552,0.583-1.605,0.865-3.164,0.848v-6.327c0-0.516,0.114-0.861,0.342-1.035
		c0.227-0.173,0.758-0.26,1.595-0.26c2.198,0,3.713,0.325,4.545,0.975s1.422,1.855,1.769,3.617h0.668v-5.513h-15.752v0.693
		c0.792,0.044,1.34,0.15,1.643,0.318c0.524,0.274,0.787,0.809,0.787,1.604v13.243c0,0.783-0.253,1.317-0.762,1.603
		c-0.328,0.187-0.885,0.293-1.668,0.319v0.694H306.313L306.313,573.951z M322.238,573.951h9.238v-0.694
		c-0.961-0.034-1.603-0.22-1.924-0.554c-0.319-0.334-0.479-0.98-0.479-1.942v-5.353h0.011l6.378,8.543h5.704v-0.654
		c-0.249-0.018-0.458-0.06-0.627-0.127c-0.169-0.065-0.329-0.207-0.48-0.42l-5.81-7.783c0.979-0.178,1.906-0.587,2.782-1.228
		c1.146-0.854,1.72-2.024,1.72-3.511c0-2.012-1.095-3.404-3.284-4.179c-1.13-0.383-2.607-0.573-4.432-0.573h-8.797v0.693
		c0.935,0.08,1.535,0.227,1.802,0.438c0.401,0.318,0.602,1.005,0.602,2.058v12.095c0,1.015-0.17,1.674-0.508,1.976
		c-0.339,0.303-0.97,0.477-1.896,0.521V573.951L322.238,573.951z M329.073,564.527v-6.955c0-0.418,0.113-0.719,0.34-0.901
		c0.228-0.183,0.706-0.273,1.436-0.273c1.344,0,2.27,0.521,2.776,1.562c0.294,0.614,0.44,1.451,0.44,2.511
		c0,1.726-0.385,2.826-1.154,3.303S330.862,564.5,329.073,564.527L329.073,564.527L329.073,564.527z M355.651,573.951h9.838v-0.694
		c-1.014,0.019-1.768-0.087-2.262-0.313c-0.494-0.228-0.741-0.763-0.741-1.608v-6.368c1.468,0,2.485,0.339,3.05,1.016
		c0.565,0.676,0.941,1.753,1.128,3.229h0.694v-9.236h-0.694c-0.267,1.424-0.661,2.46-1.181,3.109
		c-0.521,0.65-1.521,0.961-2.997,0.935v-6.327c0-0.498,0.108-0.839,0.327-1.021c0.218-0.183,0.727-0.273,1.527-0.273
		c2.154,0,3.631,0.34,4.433,1.021c0.801,0.682,1.371,1.871,1.709,3.571h0.668v-5.513h-15.499v0.693
		c0.818,0.054,1.379,0.165,1.682,0.334c0.498,0.276,0.748,0.811,0.748,1.603v13.229c0,0.783-0.254,1.317-0.761,1.603
		c-0.33,0.187-0.886,0.293-1.669,0.319V573.951L355.651,573.951z M386.074,573.951h15.832l1.108-6.194h-0.802
		c-0.81,2.102-1.772,3.514-2.89,4.239s-2.499,1.087-4.146,1.087c-0.917,0-1.532-0.097-1.849-0.293
		c-0.316-0.195-0.474-0.597-0.474-1.203v-12.921c0-1.079,0.185-1.756,0.554-2.031c0.369-0.273,1.11-0.429,2.223-0.465v-0.693h-9.558
		v0.693c0.792,0.044,1.339,0.15,1.642,0.318c0.517,0.274,0.774,0.809,0.774,1.604v13.241c0,0.802-0.271,1.346-0.814,1.63
		c-0.32,0.169-0.854,0.268-1.602,0.294V573.951L386.074,573.951z M415.375,555.476v0.693c0.329,0.009,0.654,0.089,0.976,0.24
		c0.479,0.241,0.885,0.659,1.215,1.255l4.992,9.078v4.018c0,0.997-0.167,1.655-0.5,1.976c-0.334,0.321-1.009,0.494-2.023,0.521
		v0.694h9.479v-0.694c-0.975-0.026-1.639-0.188-1.992-0.486c-0.354-0.298-0.531-0.969-0.531-2.01v-5.032l5.22-8.503
		c0.222-0.348,0.498-0.605,0.827-0.775c0.258-0.105,0.605-0.2,1.042-0.28v-0.693h-6.008v0.693c0.881,0.062,1.451,0.147,1.709,0.254
		c0.383,0.16,0.574,0.48,0.574,0.961c0,0.312-0.156,0.792-0.468,1.442c-0.205,0.427-0.4,0.787-0.587,1.081l-2.935,4.806h-0.034
		l-3.613-6.567c-0.178-0.383-0.291-0.648-0.34-0.795s-0.073-0.282-0.073-0.407c0-0.284,0.134-0.471,0.4-0.561
		c0.268-0.089,0.872-0.16,1.815-0.214v-0.693H415.375L415.375,555.476z"/>
	<path d="M252.692,517.318c11.751-1.862,22.947-14.621,38.868-11.249c7.42,1.573,16.594,5.458,20.074,10.874
		c-9.988,0.206-24.295-6.686-32.46,0.375c-4.583,2.755-2.873,6.708-9.836,8.198C262.223,527.039,237.939,523.21,252.692,517.318
		L252.692,517.318z"/>
	<path d="M262.88,516.237c0,0-7.634,5.576-85.363,3.41c-78.497-2.188-107.273-1.145-107.273-1.145l-5.959,6.063h7.946l43.704-1.669
		l64.562-0.325l32.778,0.65l23.839-0.325h15.574l7.945,0.028L262.88,516.237L262.88,516.237z"/>

		<path fill="none" stroke="#000000" stroke-width="2.5708" stroke-linecap="round" stroke-linejoin="round" stroke-miterlimit="10" d="
		M262.88,516.237c0,0-7.634,5.576-85.363,3.41c-78.497-2.188-107.273-1.145-107.273-1.145l-5.959,6.063h7.946l43.704-1.669
		l64.562-0.325l32.778,0.65l23.839-0.325h15.574l7.945,0.028L262.88,516.237L262.88,516.237z"/>
	<path d="M342.593,520.984c-11.751,1.802-22.947,14.146-38.867,10.883c-7.42-1.521-16.594-5.28-20.075-10.52
		c9.988-0.2,24.296,6.467,32.461-0.363c4.583-2.666,2.873-6.49,9.836-7.933C333.063,511.578,357.347,515.283,342.593,520.984
		L342.593,520.984z"/>
	<path d="M333.394,520.92c0,0,6.645-4.476,84.375-2.563c78.497,1.931,107.271,1.01,107.271,1.01l5.96-5.354h-7.945l-43.704,1.474
		l-64.562,0.287L382.01,515.2l-23.839,0.287h-15.574l-7.944-0.025L333.394,520.92L333.394,520.92z"/>

		<path fill="none" stroke="#000000" stroke-width="2.5708" stroke-linecap="round" stroke-linejoin="round" stroke-miterlimit="10" d="
		M333.394,520.92c0,0,6.645-4.476,84.375-2.563c78.497,1.931,107.271,1.01,107.271,1.01l5.96-5.354h-7.945l-43.704,1.474
		l-64.562,0.287L382.01,515.2l-23.839,0.287h-15.574l-7.944-0.025L333.394,520.92L333.394,520.92z"/>
	<path d="M299.213,324.848c0-2.576,2.089-4.663,4.663-4.663l46.854,22.208c2.574,0,4.664,2.088,4.664,4.662v28.931
		c0,2.575-2.09,4.663-4.664,4.663l-46.854-22.209c-2.574,0-4.663-2.086-4.663-4.663V324.848L299.213,324.848z"/>
	<path d="M294.934,324.848c0-2.575-2.089-4.663-4.663-4.663l-46.855,22.208c-2.574,0-4.663,2.088-4.663,4.662v28.931
		c0,2.575,2.089,4.663,4.663,4.663l46.855-22.209c2.574,0,4.663-2.086,4.663-4.663V324.848L294.934,324.848z"/>
	<path d="M224.76,278.75c0-3.479,2.607-6.303,5.823-6.303l58.524,30.014c3.216,0,5.826,2.82,5.826,6.3v39.096
		c0,3.481-2.61,6.302-5.826,6.302l-58.524-30.011c-3.216,0-5.823-2.822-5.823-6.304V278.75L224.76,278.75z"/>
	<path fill="none" stroke="#FFFFFF" stroke-width="6.8348" stroke-miterlimit="10" d="M224.76,278.75
		c0-3.479,2.607-6.303,5.823-6.303l58.524,30.014c3.216,0,5.826,2.82,5.826,6.3v39.096c0,3.481-2.61,6.302-5.826,6.302
		l-58.524-30.011c-3.216,0-5.823-2.822-5.823-6.304V278.75L224.76,278.75z"/>
	<path d="M369.386,278.75c0-3.479-2.607-6.303-5.824-6.303l-58.523,30.011c-3.216,0-5.825,2.823-5.825,6.303v39.096
		c0,3.481,2.609,6.302,5.825,6.302l58.523-30.011c3.217,0,5.824-2.822,5.824-6.304V278.75L369.386,278.75z"/>
	<path fill="none" stroke="#FFFFFF" stroke-width="9.113" stroke-miterlimit="10" d="M369.386,278.75
		c0-3.479-2.607-6.303-5.824-6.303l-58.523,30.011c-3.216,0-5.825,2.823-5.825,6.303v39.096c0,3.481,2.609,6.302,5.825,6.302
		l58.523-30.011c3.217,0,5.824-2.822,5.824-6.304V278.75L369.386,278.75z"/>
</g>
</svg>
