<?xml version="1.0" encoding="utf-8"?>
<!-- Generator: Adobe Illustrator 15.0.2, SVG Export Plug-In . SVG Version: 6.00 Build 0)  -->
<!DOCTYPE svg PUBLIC "-//W3C//DTD SVG 1.1//EN" "http://www.w3.org/Graphics/SVG/1.1/DTD/svg11.dtd">
<svg version="1.1" id="Ebene_1" xmlns="http://www.w3.org/2000/svg" xmlns:xlink="http://www.w3.org/1999/xlink" x="0px" y="0px"
	 width="644.05px" height="443.91px" viewBox="0 0 644.05 443.91" enable-background="new 0 0 644.05 443.91" xml:space="preserve">
<g>
	<defs>
		<rect id="SVGID_1_" x="-0.758" y="3.569" width="644.808" height="440.341"/>
	</defs>
	<clipPath id="SVGID_2_">
		<use xlink:href="#SVGID_1_"  overflow="visible"/>
	</clipPath>
	<path clip-path="url(#SVGID_2_)" d="M618.631,267.182c-6.711-17.279-13.423-34.638-20.13-52.069h-4.663l-42.523,104.133h4.506
		l36.966-90.158c5.808,15.132,11.619,30.154,17.432,45.081c5.809,14.928,11.667,29.949,17.579,45.078h11.117
		C632.104,301.819,625.341,284.46,618.631,267.182 M474.981,215.113h-11.566l7.815,11.424V319.4h4.204v-86.553l58.901,86.553h5.858
		v-8.571v-95.716h-4.207v89.555L474.981,215.113z M387.084,215.113h-11.569l7.814,11.424V319.4h4.207v-86.553l58.901,86.553h5.86
		v-8.571v-95.716h-4.207v89.555L387.084,215.113z M352.374,267.182c-6.71-17.279-13.424-34.638-20.135-52.069h-4.658
		l-42.523,104.133h4.509l36.962-90.158c5.808,15.132,11.624,30.154,17.431,45.081c5.808,14.928,11.667,29.949,17.581,45.077h11.116
		C365.846,301.819,359.084,284.46,352.374,267.182 M248.094,269.059c3.307,0,6.461,0.58,9.465,1.729
		c3.011,1.148,5.611,2.755,7.815,4.807c2.201,2.057,3.958,4.483,5.261,7.29c1.3,2.806,1.954,5.858,1.954,9.168
		c0,3.303-0.654,6.334-1.954,9.089c-1.303,2.754-3.06,5.131-5.261,7.136c-2.204,2.001-4.804,3.555-7.815,4.658
		c-3.004,1.102-6.159,1.652-9.465,1.652h-27.799v-45.529H248.094z M238.778,219.473c3.105,0,6.033,0.604,8.79,1.801
		c2.756,1.206,5.137,2.836,7.138,4.884c2.006,2.061,3.61,4.436,4.808,7.14c1.203,2.704,1.806,5.607,1.806,8.716
		c0,3.108-0.603,6.039-1.806,8.788c-1.198,2.76-2.802,5.161-4.808,7.218c-2.001,2.053-4.382,3.679-7.138,4.884
		c-2.756,1.195-5.685,1.797-8.79,1.797h-18.482v-45.227H238.778z M209.928,319.4h10.367h33.812c3.807,0,7.387-0.732,10.744-2.181
		c3.353-1.451,6.257-3.406,8.715-5.863c2.451-2.453,4.404-5.331,5.86-8.64c1.447-3.308,2.175-6.857,2.175-10.664
		c0-3.506-0.624-6.818-1.874-9.923c-1.256-3.103-2.958-5.857-5.111-8.264c-2.152-2.401-4.681-4.403-7.589-6.007
		c-2.904-1.602-6.062-2.606-9.467-3.006c3.806-2.406,6.889-5.611,9.244-9.618c2.35-4.007,3.531-8.414,3.531-13.221
		c0-3.704-0.702-7.187-2.106-10.445c-1.404-3.252-3.332-6.083-5.786-8.489c-2.455-2.4-5.309-4.304-8.562-5.709
		c-3.258-1.401-6.741-2.104-10.442-2.104h-33.511V319.4z M178.073,267.182c-6.708-17.279-13.422-34.638-20.132-52.069h-4.659
		L110.76,319.246h4.507l36.965-90.158c5.808,15.132,11.619,30.154,17.426,45.081c5.812,14.928,11.671,29.949,17.584,45.077h11.119
		C191.547,301.819,184.783,284.46,178.073,267.182 M37.359,215.641c-6.561,2.857-12.272,6.715-17.129,11.573
		c-4.857,4.858-8.716,10.567-11.568,17.125c-2.854,6.566-4.285,13.6-4.285,21.12c0,7.408,1.431,14.399,4.285,20.957
		c2.852,6.56,6.711,12.3,11.568,17.205c4.856,4.909,10.568,8.788,17.129,11.645c6.562,2.853,13.601,4.279,21.113,4.279
		c7.511,0,14.549-1.427,21.11-4.279c6.561-2.856,12.269-6.735,17.131-11.645c4.856-4.905,8.716-10.645,11.57-17.205
		c2.852-6.558,4.282-13.549,4.282-20.957v-1.507h-1.651h-7.215H58.472v4.207h45.078c-0.301,6.612-1.706,12.772-4.208,18.483
		c-2.507,5.71-5.786,10.67-9.841,14.876c-4.058,4.208-8.741,7.541-14.051,9.994c-5.311,2.455-10.965,3.679-16.978,3.679
		c-6.214,0-12.073-1.301-17.581-3.904c-5.512-2.602-10.318-6.161-14.427-10.671c-4.107-4.51-7.337-9.767-9.687-15.779
		c-2.359-6.008-3.532-12.468-3.532-19.377c0-6.914,1.173-13.399,3.532-19.463c2.349-6.059,5.58-11.343,9.687-15.852
		c4.109-4.508,8.915-8.059,14.427-10.669c5.507-2.602,11.367-3.904,17.581-3.904c6.71,0,12.968,1.498,18.781,4.508
		c5.808,3.002,10.819,7.061,15.026,12.17l4.359-5.109c-4.909-4.906-10.621-8.768-17.131-11.569
		c-6.512-2.802-13.524-4.208-21.036-4.208C50.959,211.361,43.921,212.789,37.359,215.641"/>
	<path clip-path="url(#SVGID_2_)" d="M510.044,413.574v1.106c0.524,0.013,1.044,0.144,1.555,0.383
		c0.767,0.384,1.413,1.052,1.94,2.003l7.959,14.476v6.408c0,1.591-0.27,2.639-0.797,3.15c-0.532,0.509-1.607,0.787-3.227,0.83v1.107
		h15.115v-1.107c-1.558-0.043-2.611-0.304-3.176-0.774c-0.571-0.478-0.849-1.547-0.849-3.206v-8.027l8.324-13.56
		c0.353-0.557,0.792-0.963,1.32-1.236c0.409-0.169,0.963-0.317,1.661-0.446v-1.106h-9.58v1.106c1.403,0.097,2.311,0.233,2.725,0.405
		c0.61,0.255,0.91,0.767,0.91,1.531c0,0.495-0.248,1.264-0.74,2.299c-0.332,0.683-0.638,1.255-0.937,1.726l-4.684,7.664h-0.05
		l-5.766-10.475c-0.281-0.608-0.462-1.03-0.536-1.27c-0.083-0.228-0.119-0.446-0.119-0.645c0-0.457,0.212-0.75,0.638-0.896
		c0.426-0.142,1.388-0.257,2.896-0.341v-1.106H510.044z M463.314,443.038h25.25l1.764-9.879h-1.28
		c-1.283,3.352-2.82,5.598-4.605,6.761c-1.78,1.153-3.985,1.734-6.609,1.734c-1.464,0-2.444-0.151-2.944-0.469
		c-0.508-0.315-0.759-0.95-0.759-1.921V418.66c0-1.723,0.294-2.801,0.88-3.241c0.593-0.432,1.771-0.684,3.548-0.738v-1.106h-15.243
		v1.106c1.265,0.068,2.138,0.238,2.624,0.506c0.817,0.438,1.23,1.289,1.23,2.559v21.116c0,1.281-0.439,2.144-1.301,2.601
		c-0.508,0.273-1.36,0.426-2.554,0.469V443.038z M414.797,443.038h15.69v-1.107c-1.618,0.03-2.819-0.141-3.611-0.504
		c-0.786-0.361-1.18-1.218-1.18-2.561v-10.156c2.338,0,3.966,0.541,4.868,1.617c0.894,1.078,1.499,2.794,1.797,5.154h1.107v-14.733
		h-1.107c-0.426,2.274-1.057,3.926-1.886,4.96c-0.829,1.035-2.423,1.533-4.779,1.491v-10.092c0-0.796,0.175-1.336,0.524-1.631
		c0.341-0.284,1.158-0.434,2.436-0.434c3.433,0,5.791,0.545,7.069,1.63c1.275,1.085,2.184,2.98,2.724,5.693h1.065v-8.792h-24.717
		v1.106c1.306,0.084,2.203,0.259,2.678,0.532c0.802,0.438,1.197,1.291,1.197,2.555v21.099c0,1.246-0.404,2.103-1.214,2.554
		c-0.528,0.298-1.414,0.468-2.661,0.511V443.038z M372.412,428.006v-11.092c0-0.663,0.178-1.144,0.544-1.438
		c0.357-0.284,1.123-0.434,2.286-0.434c2.143,0,3.621,0.827,4.424,2.49c0.474,0.979,0.708,2.312,0.708,4.002
		c0,2.755-0.615,4.51-1.845,5.272C377.309,427.564,375.264,427.963,372.412,428.006 M361.512,443.038h14.731v-1.107
		c-1.532-0.055-2.554-0.351-3.064-0.886c-0.512-0.531-0.767-1.563-0.767-3.095v-8.536h0.016l10.168,13.624h9.103v-1.044
		c-0.4-0.029-0.733-0.094-1.004-0.204c-0.264-0.102-0.524-0.328-0.763-0.668l-9.265-12.412c1.563-0.281,3.037-0.937,4.433-1.958
		c1.83-1.363,2.742-3.228,2.742-5.6c0-3.207-1.743-5.428-5.236-6.664c-1.798-0.613-4.157-0.914-7.069-0.914h-14.024v1.106
		c1.49,0.129,2.447,0.362,2.878,0.697c0.634,0.512,0.954,1.606,0.954,3.282v19.29c0,1.617-0.273,2.669-0.81,3.15
		c-0.54,0.479-1.55,0.761-3.022,0.83V443.038z M336.109,443.038l1.771-9.069h-1.217c-1.359,2.964-2.921,4.99-4.68,6.066
		c-1.763,1.078-4.031,1.619-6.815,1.619c-1.473,0-2.449-0.171-2.924-0.498c-0.478-0.337-0.716-0.968-0.716-1.887v-10.56
		c2.485,0,4.207,0.506,5.167,1.523c0.954,1.015,1.588,2.766,1.904,5.248h1.106v-14.733h-1.106c-0.469,2.469-1.146,4.167-2.022,5.097
		c-0.881,0.927-2.564,1.384-5.049,1.354v-10.092c0-0.821,0.183-1.37,0.545-1.652c0.362-0.271,1.208-0.412,2.542-0.412
		c3.507,0,5.925,0.519,7.252,1.555c1.321,1.034,2.266,2.958,2.819,5.769h1.065v-8.792h-25.124v1.106
		c1.266,0.068,2.136,0.238,2.621,0.506c0.837,0.438,1.255,1.289,1.255,2.559v21.121c0,1.246-0.404,2.103-1.211,2.554
		c-0.528,0.298-1.414,0.468-2.664,0.511v1.107H336.109z M260.152,422.366h1.257c0.27-3.116,1.448-5.245,3.535-6.384
		c1.133-0.611,2.769-0.944,4.896-1.003v22.966c0,1.591-0.278,2.656-0.843,3.188c-0.561,0.527-1.689,0.797-3.395,0.797v1.107h15.543
		v-1.107c-1.772,0-2.941-0.265-3.5-0.787c-0.563-0.524-0.842-1.593-0.842-3.198v-22.966c2.171,0.059,3.801,0.392,4.896,1.003
		c1.946,1.106,3.124,3.238,3.531,6.384h1.256l-0.039-8.792h-26.25L260.152,422.366z M209.271,422.366h1.257
		c0.27-3.116,1.447-5.245,3.536-6.384c1.132-0.611,2.766-0.944,4.896-1.003v22.966c0,1.591-0.281,2.656-0.843,3.188
		c-0.558,0.527-1.689,0.797-3.395,0.797v1.107h15.542v-1.107c-1.774,0-2.942-0.265-3.502-0.787c-0.562-0.524-0.84-1.593-0.84-3.198
		v-22.966c2.171,0.059,3.802,0.392,4.896,1.003c1.944,1.106,3.121,3.238,3.532,6.384h1.255l-0.04-8.792h-26.252L209.271,422.366z
		 M155.584,413.574v1.106c1.515,0.17,2.492,0.464,2.925,0.89c0.437,0.421,0.649,1.455,0.649,3.09v14.596
		c0,2.513,0.493,4.565,1.469,6.157c1.845,2.998,5.271,4.497,10.287,4.497c3.826,0,6.639-1.009,8.425-3.022
		c1.789-2.015,2.683-4.874,2.683-8.58v-13.945c0-1.402,0.226-2.299,0.671-2.694c0.449-0.388,1.364-0.718,2.76-0.987v-1.106h-9.584
		v1.106c1.676,0.129,2.801,0.489,3.375,1.077c0.577,0.587,0.864,1.662,0.864,3.223v13.339c0,2.463-0.328,4.37-0.981,5.736
		c-1.177,2.482-3.441,3.726-6.79,3.726c-2.697,0-4.522-1.124-5.472-3.368c-0.528-1.209-0.789-2.925-0.789-5.144V418.66
		c0-1.664,0.283-2.729,0.852-3.195c0.57-0.465,1.694-0.729,3.386-0.784v-1.106H155.584z M115.496,439.014v-10.901
		c2.369-0.043,4.108,0.247,5.216,0.872c1.831,1.023,2.747,3.083,2.747,6.175c0,2.073-0.414,3.67-1.247,4.791
		c-0.83,1.119-2.277,1.681-4.333,1.681c-1.007,0-1.688-0.312-2.042-0.937C115.625,440.341,115.511,439.779,115.496,439.014
		 M115.496,426.793v-9.792c0-0.796,0.174-1.347,0.532-1.647c0.354-0.308,0.986-0.461,1.893-0.461c1.719,0,2.878,0.566,3.485,1.704
		c0.601,1.136,0.901,2.533,0.901,4.192c0,2.244-0.463,3.803-1.381,4.684C120.001,426.354,118.192,426.793,115.496,426.793
		 M104.703,443.038h14.029c3.702,0,6.672-0.752,8.899-2.245c2.229-1.504,3.339-3.454,3.339-5.867c0-2.585-1.164-4.599-3.488-6.045
		c-1.194-0.738-2.597-1.265-4.217-1.575v-0.406c1.532-0.28,2.958-0.953,4.27-2.013c1.311-1.057,1.967-2.487,1.967-4.288
		c0-2.967-1.619-5.011-4.855-6.131c-1.717-0.596-3.87-0.894-6.47-0.894h-13.475v1.106c1.265,0.068,2.135,0.238,2.618,0.506
		c0.807,0.438,1.213,1.289,1.213,2.559v21.121c0,1.276-0.432,2.144-1.298,2.596c-0.511,0.273-1.356,0.426-2.533,0.469V443.038z"/>
	<path clip-path="url(#SVGID_2_)" d="M259.884,360.696c16.146-2.56,31.531-20.093,53.405-15.456
		c10.198,2.163,22.803,7.497,27.588,14.94c-13.727,0.285-33.388-9.184-44.606,0.516c-6.3,3.785-3.949,9.218-13.515,11.266
		C272.978,374.052,239.616,368.793,259.884,360.696"/>
	<path clip-path="url(#SVGID_2_)" d="M273.882,359.209c0,0-10.487,7.659-117.29,4.688c-107.855-3.01-147.396-1.577-147.396-1.577
		l-8.19,8.332h10.92l60.048-2.29l88.712-0.451l45.039,0.895l32.753-0.443h21.401l10.916,0.038L273.882,359.209z"/>

		<path clip-path="url(#SVGID_2_)" fill="none" stroke="#000000" stroke-width="0.81" stroke-linecap="round" stroke-linejoin="round" stroke-miterlimit="10" d="
		M273.882,359.209c0,0-10.487,7.659-117.29,4.688c-107.855-3.01-147.396-1.577-147.396-1.577l-8.19,8.332h10.92l60.048-2.29
		l88.712-0.451l45.039,0.895l32.753-0.443h21.401l10.916,0.038L273.882,359.209z"/>
	<path clip-path="url(#SVGID_2_)" d="M383.408,365.731c-16.141,2.476-31.529,19.438-53.404,14.954
		c-10.198-2.091-22.803-7.255-27.584-14.455c13.725-0.272,33.383,8.892,44.603-0.499c6.296-3.659,3.947-8.915,13.519-10.898
		C370.318,352.81,403.681,357.898,383.408,365.731"/>
	<path clip-path="url(#SVGID_2_)" d="M370.768,365.643c0,0,9.129-6.15,115.932-3.521c107.857,2.657,147.398,1.393,147.398,1.393
		l8.188-7.362h-10.917l-60.051,2.027l-88.711,0.396l-45.038-0.792l-32.752,0.396h-21.404l-10.912-0.033L370.768,365.643z"/>

		<path clip-path="url(#SVGID_2_)" fill="none" stroke="#000000" stroke-width="0.81" stroke-linecap="round" stroke-linejoin="round" stroke-miterlimit="10" d="
		M370.768,365.643c0,0,9.129-6.15,115.932-3.521c107.857,2.657,147.398,1.393,147.398,1.393l8.188-7.362h-10.917l-60.051,2.027
		l-88.711,0.396l-45.038-0.792l-32.752,0.396h-21.404l-10.912-0.033L370.768,365.643z"/>
	<path clip-path="url(#SVGID_2_)" fill="#FFFFFF" d="M221.76,154.099c0,6.535,1.861,14.527,11.903,11.841l67.091-32.138
		c6.811-3.76,11.899-5.305,11.899-11.841V81.768c0.85-11.411-6.585-14.745-11.899-11.841l-67.091,32.133
		c-8.093,3.913-11.903,5.3-11.903,11.842V154.099z"/>
	<path clip-path="url(#SVGID_2_)" d="M304.546,73.49c-0.536,0-1.089,0.145-1.609,0.435l-68.791,32.956
		c-7.539,3.623-7.83,4.129-7.83,7.021v40.197c0,7.817,2.675,7.817,3.682,7.817c0.611,0,1.319-0.089,2.103-0.282l66.682-31.941
		c0.791-0.443,1.786-0.961,2.725-1.456c5.785-3.031,6.586-3.794,6.586-6.276l0.009-40.539c0.242-3.15-0.316-5.708-1.531-7.012
		C306.006,73.797,305.328,73.49,304.546,73.49 M229.999,171.032h-0.003c-3.846,0-12.791-1.657-12.791-16.933v-40.197
		c0-8.989,5.737-11.748,13-15.236l68.579-32.852c1.639-0.904,3.706-1.44,5.762-1.44c3.323,0,6.419,1.363,8.708,3.836
		c2.088,2.249,4.455,6.447,3.955,13.719v40.031c0,8.337-5.835,11.389-11.472,14.344c-0.883,0.464-1.819,0.954-2.78,1.486
		l-68.117,32.551C233.13,170.798,231.503,171.032,229.999,171.032"/>
	<path clip-path="url(#SVGID_2_)" fill="#FFFFFF" d="M312.651,115.314c0,8.235-1.863,18.292-11.89,14.911l-67.043-40.466
		c-6.806-4.739-11.89-6.681-11.89-14.915V24.22c-0.849-14.366,6.575-18.564,11.89-14.911l67.043,40.475
		c8.079,4.926,11.89,6.672,11.89,14.91V115.314z"/>
	<path clip-path="url(#SVGID_2_)" d="M302.653,126.049c0.667,0.195,1.261,0.293,1.766,0.293c3.411,0,3.676-8.439,3.676-11.023V64.69
		c0-4.998-1.167-5.846-8.202-10.108l-1.507-0.916l-67.022-40.458c-1.435-0.966-1.963-0.74-2.787,0.127
		c-0.628,0.664-2.629,3.385-2.201,10.611l0.009,50.898c0,4.381,1.561,5.607,6.976,9.18c0.941,0.621,1.931,1.272,2.958,1.988
		L302.653,126.049z M304.419,135.458c-1.599,0-3.321-0.307-5.113-0.912l-0.903-0.417l-67.039-40.474
		c-1.207-0.831-2.138-1.439-3.021-2.028c-5.441-3.588-11.07-7.306-11.07-16.783V24.216c-0.566-9.415,2.227-14.537,4.672-17.13
		c3.802-4.032,9.799-4.671,14.353-1.529l68.313,41.229c7.312,4.428,12.596,7.625,12.596,17.904v50.629
		C317.207,132.84,309.194,135.458,304.419,135.458"/>
	<path clip-path="url(#SVGID_2_)" fill="#FFFFFF" d="M421.534,154.099c0,6.535-1.862,14.527-11.902,11.841l-67.094-32.138
		c-6.812-3.76-11.896-5.305-11.896-11.841V81.768c-0.853-11.411,6.583-14.745,11.896-11.841l67.094,32.133
		c8.09,3.913,11.902,5.3,11.902,11.842V154.099z"/>
	<path clip-path="url(#SVGID_2_)" d="M336.714,74.405c-1.205,1.304-1.764,3.863-1.529,7.021l0.014,40.539
		c0,2.478,0.799,3.24,6.581,6.268c0.946,0.494,1.935,1.013,2.727,1.456l66.684,31.946c0.784,0.188,1.491,0.286,2.104,0.286
		c1.008,0,3.687,0,3.687-7.821v-40.197c0-2.892-0.293-3.398-7.834-7.018L340.359,73.92c-0.521-0.281-1.078-0.43-1.61-0.43
		C337.965,73.49,337.284,73.797,336.714,74.405 M408.458,170.342l-68.116-32.551c-0.97-0.532-1.899-1.022-2.785-1.481
		c-5.641-2.955-11.47-6.008-11.47-14.345V81.93c-0.501-7.272,1.865-11.475,3.952-13.723c2.29-2.47,5.389-3.828,8.71-3.828
		c2.053,0,4.121,0.532,5.758,1.436l68.584,32.856c7.264,3.483,12.994,6.238,12.994,15.231v40.197
		c0,15.281-8.941,16.933-12.79,16.933C411.792,171.032,410.162,170.798,408.458,170.342"/>
	<path clip-path="url(#SVGID_2_)" fill="#FFFFFF" d="M330.643,115.314c0,8.235,1.865,18.292,11.888,14.911l67.042-40.466
		c6.809-4.739,11.894-6.681,11.894-14.915V24.22c0.851-14.366-6.575-18.564-11.894-14.911L342.53,49.783
		c-8.078,4.926-11.888,6.672-11.888,14.91V115.314z"/>
	<path clip-path="url(#SVGID_2_)" d="M406.975,86.017c1.027-0.716,2.01-1.367,2.956-1.992c5.417-3.576,6.979-4.799,6.979-9.18
		l0.008-50.898c0.43-7.226-1.571-9.947-2.203-10.611c-0.825-0.873-1.354-1.089-2.784-0.127l-67.021,40.458l-1.512,0.916
		c-7.034,4.257-8.199,5.11-8.199,10.111v50.621c0,2.589,0.267,11.028,3.678,11.028c0.502,0,1.099-0.098,1.763-0.293L406.975,86.017z
		 M326.087,115.314V64.693c0-10.278,5.283-13.479,12.593-17.907l68.313-41.232c4.556-3.139,10.55-2.504,14.358,1.537
		c2.443,2.593,5.237,7.715,4.675,17.129v50.625c0,9.481-5.63,13.195-11.071,16.788c-0.886,0.579-1.814,1.197-3.023,2.023
		l-67.042,40.474l-0.903,0.417c-1.788,0.605-3.508,0.908-5.109,0.908C334.099,135.455,326.087,132.84,326.087,115.314"/>
</g>
</svg>
