<?xml version="1.0" encoding="utf-8"?>
<!-- Generator: Adobe Illustrator 21.1.0, SVG Export Plug-In . SVG Version: 6.00 Build 0)  -->
<svg version="1.1" id="Ebene_1" xmlns="http://www.w3.org/2000/svg" xmlns:xlink="http://www.w3.org/1999/xlink" x="0px" y="0px"
	 viewBox="0 0 841.89 595.28" enable-background="new 0 0 841.89 595.28" xml:space="preserve">
<g>
	<defs>
		<rect id="SVGID_1_" x="137" y="105.004" width="567.106" height="387.276"/>
	</defs>
	<clipPath id="SVGID_2_">
		<use xlink:href="#SVGID_1_"  overflow="visible"/>
	</clipPath>
	<path clip-path="url(#SVGID_2_)" d="M681.748,336.849c-5.903-15.197-11.807-30.461-17.708-45.791h-4.097l-37.399,91.581h3.965
		l32.509-79.29c5.109,13.303,10.219,26.519,15.33,39.645c5.108,13.128,10.262,26.344,15.461,39.645h9.78
		C693.596,367.31,687.65,352.046,681.748,336.849 M555.413,291.058h-10.176l6.872,10.044v81.67h3.7v-76.12l51.803,76.12h5.154
		v-7.533v-84.181h-3.7v78.763L555.413,291.058z M478.105,291.058h-10.176l6.872,10.044v81.67h3.701v-76.12l51.803,76.12h5.154
		v-7.533v-84.181h-3.7v78.763L478.105,291.058z M447.577,336.849c-5.903-15.197-11.806-30.461-17.708-45.791h-4.097l-37.398,91.581
		h3.964l32.509-79.29c5.109,13.303,10.219,26.519,15.33,39.645c5.108,13.128,10.262,26.344,15.462,39.645h9.779
		C459.426,367.31,453.479,352.046,447.577,336.849 M355.865,338.501c2.908,0,5.683,0.508,8.326,1.52
		c2.643,1.013,4.933,2.424,6.872,4.228c1.937,1.807,3.479,3.944,4.625,6.41c1.144,2.467,1.718,5.154,1.718,8.061
		c0,2.907-0.574,5.573-1.718,7.995c-1.146,2.424-2.688,4.516-4.625,6.277c-1.939,1.764-4.229,3.129-6.872,4.097
		c-2.643,0.971-5.418,1.454-8.326,1.454h-24.448v-40.042H355.865z M347.672,294.891c2.73,0,5.307,0.528,7.731,1.586
		c2.422,1.057,4.514,2.49,6.277,4.295c1.761,1.806,3.172,3.898,4.229,6.277c1.057,2.379,1.586,4.935,1.586,7.665
		c0,2.731-0.529,5.308-1.586,7.73c-1.057,2.425-2.468,4.539-4.229,6.344c-1.763,1.806-3.855,3.237-6.277,4.295
		c-2.424,1.057-5.001,1.585-7.731,1.585h-16.255v-39.777H347.672z M322.299,382.772h9.118h29.735c3.347,0,6.496-0.638,9.448-1.917
		c2.951-1.276,5.505-2.994,7.665-5.154c2.158-2.157,3.876-4.691,5.154-7.598c1.276-2.908,1.916-6.034,1.916-9.383
		c0-3.083-0.551-5.99-1.652-8.722c-1.102-2.73-2.599-5.154-4.493-7.268c-1.895-2.115-4.119-3.876-6.673-5.286
		c-2.557-1.409-5.332-2.29-8.326-2.643c3.347-2.115,6.056-4.933,8.127-8.458c2.069-3.523,3.106-7.401,3.106-11.629
		c0-3.259-0.618-6.321-1.85-9.185c-1.235-2.862-2.93-5.352-5.088-7.466c-2.16-2.115-4.671-3.787-7.533-5.022
		c-2.864-1.233-5.926-1.85-9.184-1.85h-29.47V382.772z M294.283,336.849c-5.903-15.197-11.807-30.461-17.708-45.791h-4.097
		l-37.398,91.581h3.964l32.509-79.29c5.109,13.303,10.219,26.519,15.33,39.645c5.108,13.128,10.262,26.344,15.462,39.645h9.779
		C306.132,367.31,300.185,352.046,294.283,336.849 M170.525,291.521c-5.771,2.511-10.793,5.903-15.065,10.176
		c-4.275,4.274-7.665,9.296-10.176,15.065c-2.511,5.771-3.766,11.96-3.766,18.567c0,6.521,1.255,12.666,3.766,18.435
		c2.511,5.772,5.901,10.816,10.176,15.132c4.272,4.317,9.294,7.73,15.065,10.241c5.769,2.511,11.96,3.767,18.567,3.767
		c6.608,0,12.796-1.256,18.568-3.767c5.769-2.511,10.791-5.924,15.065-10.241c4.272-4.316,7.665-9.36,10.175-15.132
		c2.511-5.769,3.767-11.914,3.767-18.435v-1.321h-1.454h-6.343h-39.778v3.7h39.646c-0.265,5.815-1.499,11.233-3.701,16.255
		c-2.203,5.021-5.087,9.382-8.655,13.083c-3.569,3.7-7.688,6.63-12.357,8.788c-4.67,2.159-9.647,3.237-14.933,3.237
		c-5.463,0-10.617-1.144-15.461-3.436c-4.847-2.29-9.076-5.418-12.687-9.382c-3.614-3.965-6.455-8.59-8.524-13.876
		c-2.071-5.286-3.105-10.969-3.105-17.048c0-6.079,1.034-11.782,3.105-17.113c2.069-5.33,4.91-9.978,8.524-13.942
		c3.611-3.965,7.84-7.091,12.687-9.383c4.844-2.29,9.998-3.436,15.461-3.436c5.902,0,11.409,1.321,16.519,3.964
		c5.109,2.644,9.515,6.212,13.215,10.705l3.833-4.493c-4.318-4.316-9.34-7.709-15.066-10.176c-5.727-2.466-11.893-3.7-18.501-3.7
		C182.485,287.755,176.294,289.01,170.525,291.521"/>
	<path clip-path="url(#SVGID_2_)" d="M586.247,465.599v0.973c0.462,0.013,0.917,0.125,1.367,0.337
		c0.674,0.337,1.242,0.924,1.704,1.76l7.002,12.732v5.636c0,1.398-0.234,2.322-0.702,2.771c-0.468,0.45-1.413,0.693-2.836,0.73
		v0.974h13.293v-0.974c-1.366-0.037-2.297-0.265-2.794-0.683c-0.496-0.418-0.745-1.357-0.745-2.818v-7.059l7.321-11.927
		c0.312-0.486,0.699-0.848,1.161-1.085c0.362-0.15,0.849-0.281,1.461-0.394v-0.973h-8.426v0.973
		c1.236,0.088,2.034,0.206,2.397,0.356c0.536,0.225,0.805,0.674,0.805,1.348c0,0.437-0.219,1.111-0.656,2.022
		c-0.287,0.599-0.561,1.105-0.823,1.517l-4.116,6.74h-0.048l-5.067-9.212c-0.25-0.536-0.409-0.908-0.478-1.114
		c-0.068-0.206-0.102-0.396-0.102-0.571c0-0.399,0.187-0.661,0.561-0.786c0.375-0.125,1.223-0.225,2.547-0.3v-0.973H586.247z
		 M545.149,491.512h22.206l1.554-8.688h-1.123c-1.136,2.946-2.488,4.928-4.054,5.945c-1.567,1.018-3.504,1.526-5.814,1.526
		c-1.285,0-2.15-0.137-2.593-0.412s-0.664-0.838-0.664-1.687v-18.122c0-1.515,0.258-2.465,0.777-2.85
		c0.517-0.385,1.556-0.602,3.117-0.652v-0.973h-13.406v0.973c1.111,0.062,1.879,0.211,2.303,0.446
		c0.724,0.385,1.086,1.135,1.086,2.251v18.571c0,1.124-0.381,1.887-1.142,2.286c-0.45,0.238-1.199,0.375-2.247,0.412V491.512z
		 M502.478,491.512h13.799v-0.974c-1.423,0.026-2.48-0.121-3.173-0.44c-0.693-0.318-1.039-1.07-1.039-2.256v-8.931
		c2.059,0,3.485,0.475,4.278,1.423c0.792,0.949,1.32,2.459,1.582,4.531h0.974v-12.956h-0.974c-0.374,1.997-0.927,3.451-1.657,4.362
		s-2.132,1.348-4.203,1.311v-8.875c0-0.699,0.152-1.177,0.458-1.433c0.306-0.255,1.021-0.383,2.144-0.383
		c3.021,0,5.093,0.477,6.216,1.432c1.124,0.955,1.922,2.624,2.397,5.009h0.936v-7.733h-21.738v0.973
		c1.148,0.075,1.935,0.231,2.359,0.468c0.699,0.387,1.049,1.136,1.049,2.247v18.555c0,1.099-0.356,1.848-1.067,2.247
		c-0.462,0.262-1.243,0.412-2.341,0.449V491.512z M465.2,478.293v-9.755c0-0.586,0.159-1.008,0.477-1.264
		c0.318-0.255,0.989-0.383,2.013-0.383c1.885,0,3.183,0.73,3.894,2.19c0.412,0.862,0.618,2.035,0.618,3.52
		c0,2.422-0.54,3.967-1.619,4.634C469.503,477.903,467.709,478.256,465.2,478.293 M455.613,491.512h12.957v-0.974
		c-1.348-0.049-2.247-0.309-2.696-0.777c-0.45-0.468-0.674-1.376-0.674-2.724v-7.508h0.016l8.945,11.983h8.001v-0.917
		c-0.35-0.025-0.643-0.085-0.88-0.178c-0.237-0.094-0.462-0.291-0.674-0.59l-8.149-10.916c1.373-0.249,2.674-0.824,3.903-1.722
		c1.608-1.199,2.412-2.84,2.412-4.925c0-2.821-1.535-4.774-4.606-5.86c-1.585-0.537-3.657-0.805-6.216-0.805h-12.339v0.973
		c1.311,0.112,2.154,0.317,2.528,0.615c0.562,0.447,0.843,1.409,0.843,2.887v16.963c0,1.423-0.238,2.347-0.712,2.771
		c-0.474,0.425-1.361,0.668-2.659,0.73V491.512z M433.276,491.512l1.554-7.976h-1.067c-1.198,2.609-2.572,4.388-4.119,5.336
		c-1.548,0.949-3.545,1.423-5.992,1.423c-1.298,0-2.156-0.147-2.574-0.44c-0.418-0.293-0.627-0.846-0.627-1.657v-9.287
		c2.184,0,3.697,0.447,4.54,1.339c0.843,0.892,1.401,2.431,1.676,4.615h0.973v-12.956h-0.973c-0.412,2.171-1.005,3.666-1.779,4.484
		c-0.774,0.817-2.253,1.214-4.437,1.189v-8.875c0-0.724,0.159-1.208,0.477-1.451c0.318-0.244,1.064-0.365,2.238-0.365
		c3.082,0,5.208,0.455,6.375,1.366c1.167,0.912,1.994,2.603,2.481,5.075h0.936v-7.733h-22.094v0.973
		c1.111,0.062,1.879,0.211,2.303,0.446c0.737,0.385,1.105,1.135,1.105,2.251v18.573c0,1.099-0.356,1.848-1.067,2.247
		c-0.462,0.262-1.243,0.412-2.341,0.449v0.974H433.276z M366.471,473.332h1.105c0.236-2.742,1.273-4.613,3.108-5.615
		c0.998-0.538,2.434-0.832,4.306-0.883v20.2c0,1.399-0.247,2.333-0.74,2.802c-0.493,0.468-1.488,0.702-2.986,0.702v0.974h13.668
		v-0.974c-1.56,0-2.587-0.231-3.08-0.693c-0.493-0.462-0.739-1.399-0.739-2.811v-20.2c1.909,0.051,3.345,0.345,4.306,0.883
		c1.71,0.977,2.746,2.848,3.108,5.615h1.105l-0.038-7.733h-23.086L366.471,473.332z M321.722,473.332h1.104
		c0.237-2.742,1.274-4.613,3.109-5.615c0.998-0.538,2.434-0.832,4.306-0.883v20.2c0,1.399-0.247,2.333-0.74,2.802
		c-0.493,0.468-1.488,0.702-2.986,0.702v0.974h13.668v-0.974c-1.56,0-2.587-0.231-3.08-0.693s-0.74-1.399-0.74-2.811v-20.2
		c1.91,0.051,3.346,0.345,4.307,0.883c1.71,0.977,2.746,2.848,3.108,5.615h1.105l-0.038-7.733h-23.086L321.722,473.332z
		 M274.501,465.599v0.973c1.336,0.15,2.194,0.41,2.575,0.783c0.38,0.372,0.571,1.278,0.571,2.719v12.836
		c0,2.211,0.43,4.017,1.292,5.416c1.622,2.636,4.637,3.954,9.043,3.954c3.37,0,5.842-0.886,7.415-2.659
		c1.572-1.772,2.359-4.288,2.359-7.546v-12.264c0-1.235,0.196-2.025,0.589-2.368c0.394-0.343,1.202-0.633,2.425-0.871v-0.973h-8.425
		v0.973c1.472,0.113,2.462,0.428,2.967,0.946c0.506,0.518,0.759,1.464,0.759,2.836v11.732c0,2.162-0.288,3.842-0.862,5.042
		c-1.036,2.186-3.027,3.279-5.973,3.279c-2.371,0-3.975-0.988-4.811-2.964c-0.462-1.062-0.693-2.569-0.693-4.52v-12.849
		c0-1.465,0.249-2.403,0.749-2.812c0.499-0.41,1.491-0.64,2.977-0.69v-0.973H274.501z M239.245,487.973v-9.586
		c2.084-0.038,3.613,0.218,4.587,0.768c1.61,0.898,2.415,2.708,2.415,5.429c0,1.823-0.365,3.227-1.095,4.213s-2,1.479-3.81,1.479
		c-0.887,0-1.486-0.274-1.798-0.824C239.357,489.141,239.257,488.647,239.245,487.973 M239.245,477.226v-8.613
		c0-0.699,0.156-1.182,0.468-1.451c0.312-0.268,0.867-0.402,1.666-0.402c1.51,0,2.531,0.499,3.062,1.497
		c0.53,0.999,0.795,2.229,0.795,3.689c0,1.972-0.405,3.345-1.217,4.119C243.208,476.839,241.616,477.226,239.245,477.226
		 M229.752,491.512h12.339c3.258,0,5.866-0.658,7.826-1.975c1.96-1.317,2.94-3.036,2.94-5.159c0-2.271-1.024-4.044-3.071-5.317
		c-1.048-0.649-2.284-1.111-3.707-1.386v-0.355c1.348-0.25,2.599-0.84,3.754-1.77c1.154-0.93,1.732-2.187,1.732-3.773
		c0-2.608-1.423-4.406-4.269-5.392c-1.511-0.524-3.408-0.786-5.692-0.786h-11.852v0.973c1.111,0.062,1.878,0.211,2.303,0.446
		c0.711,0.385,1.067,1.135,1.067,2.251v18.573c0,1.124-0.381,1.885-1.142,2.284c-0.449,0.238-1.192,0.375-2.228,0.412V491.512z"/>
	<path clip-path="url(#SVGID_2_)" fill="#FFFFFF" d="M332.703,237.394c0,5.749,1.636,12.775,10.469,10.415l59.005-28.265
		c5.992-3.308,10.464-4.665,10.464-10.413v-35.354c0.751-10.035-5.789-12.966-10.464-10.414l-59.005,28.263
		c-7.117,3.442-10.469,4.662-10.469,10.413V237.394z"/>
	<path clip-path="url(#SVGID_2_)" d="M405.513,166.499c-0.469,0-0.96,0.131-1.416,0.382l-60.5,28.987
		c-6.631,3.184-6.887,3.63-6.887,6.171v35.355c0,6.877,2.353,6.877,3.24,6.877c0.537,0,1.158-0.082,1.85-0.248l58.644-28.094
		c0.7-0.392,1.571-0.849,2.398-1.282c5.087-2.665,5.792-3.335,5.792-5.516l0.01-35.653c0.209-2.775-0.282-5.025-1.346-6.172
		C406.799,166.77,406.199,166.499,405.513,166.499 M339.95,252.285h-0.002c-3.384,0-11.252-1.452-11.252-14.891v-35.355
		c0-7.907,5.045-10.329,11.434-13.396l60.314-28.894c1.443-0.794,3.261-1.264,5.069-1.264c2.922,0,5.643,1.197,7.66,3.369
		c1.834,1.977,3.915,5.67,3.475,12.067v35.21c0,7.332-5.129,10.018-10.089,12.616c-0.777,0.407-1.596,0.836-2.446,1.304
		l-59.908,28.63C342.705,252.082,341.273,252.285,339.95,252.285"/>
	<path clip-path="url(#SVGID_2_)" fill="#FFFFFF" d="M412.641,203.284c0,7.241-1.638,16.087-10.459,13.115l-58.96-35.595
		c-5.99-4.166-10.459-5.875-10.459-13.115v-44.525c-0.748-12.636,5.784-16.327,10.459-13.113l58.96,35.594
		c7.107,4.336,10.459,5.872,10.459,13.115V203.284z"/>
	<path clip-path="url(#SVGID_2_)" d="M403.847,212.724c0.59,0.172,1.112,0.26,1.555,0.26c3,0,3.232-7.425,3.232-9.699v-44.524
		c0-4.398-1.028-5.145-7.213-8.891l-1.325-0.804l-58.945-35.584c-1.263-0.848-1.727-0.653-2.452,0.112
		c-0.551,0.583-2.312,2.977-1.936,9.333l0.008,44.762c0,3.853,1.372,4.932,6.136,8.076c0.829,0.546,1.698,1.122,2.603,1.75
		L403.847,212.724z M405.402,220.998c-1.409,0-2.922-0.27-4.498-0.801l-0.793-0.366l-58.96-35.596
		c-1.064-0.73-1.881-1.269-2.659-1.781c-4.787-3.16-9.735-6.427-9.735-14.765v-44.524c-0.498-8.279,1.959-12.786,4.108-15.068
		c3.347-3.547,8.62-4.107,12.627-1.347l60.08,36.264c6.43,3.894,11.076,6.708,11.076,15.747v44.524
		C416.648,218.696,409.602,220.998,405.402,220.998"/>
	<path clip-path="url(#SVGID_2_)" fill="#FFFFFF" d="M508.403,237.394c0,5.749-1.636,12.775-10.469,10.415l-59.005-28.265
		c-5.992-3.308-10.464-4.665-10.464-10.413v-35.354c-0.751-10.035,5.789-12.966,10.464-10.414l59.005,28.263
		c7.117,3.442,10.469,4.662,10.469,10.413V237.394z"/>
	<path clip-path="url(#SVGID_2_)" d="M433.808,167.306c-1.064,1.146-1.555,3.397-1.346,6.172l0.01,35.653
		c0,2.181,0.705,2.851,5.792,5.516c0.827,0.433,1.698,0.89,2.397,1.282l58.645,28.094c0.691,0.166,1.312,0.248,1.85,0.248
		c0.887,0,3.24,0,3.24-6.877v-35.355c0-2.541-0.256-2.987-6.887-6.171l-60.5-28.987c-0.457-0.251-0.947-0.382-1.416-0.382
		C434.906,166.499,434.306,166.77,433.808,167.306 M496.901,251.681l-59.908-28.63c-0.85-0.468-1.669-0.897-2.447-1.304
		c-4.959-2.599-10.088-5.284-10.088-12.616v-35.21c-0.441-6.397,1.641-10.09,3.475-12.067c2.017-2.172,4.738-3.37,7.66-3.37
		c1.807,0,3.626,0.471,5.068,1.264l60.315,28.895c6.389,3.067,11.434,5.489,11.434,13.396v35.355
		c0,13.439-7.868,14.891-11.252,14.891h-0.002C499.833,252.285,498.401,252.081,496.901,251.681"/>
	<path clip-path="url(#SVGID_2_)" fill="#FFFFFF" d="M428.466,203.284c0,7.241,1.638,16.087,10.458,13.115l58.961-35.595
		c5.99-4.166,10.459-5.875,10.459-13.115v-44.525c0.748-12.636-5.784-16.327-10.459-13.113l-58.961,35.594
		c-7.106,4.336-10.458,5.872-10.458,13.115V203.284z"/>
	<path clip-path="url(#SVGID_2_)" d="M495.596,177.515c0.905-0.629,1.774-1.204,2.604-1.751c4.763-3.143,6.136-4.222,6.136-8.075
		l0.007-44.763c0.376-6.356-1.385-8.749-1.935-9.332c-0.726-0.766-1.19-0.96-2.453-0.113l-58.944,35.584l-1.326,0.805
		c-6.185,3.746-7.213,4.492-7.213,8.89v44.524c0,2.275,0.232,9.699,3.232,9.699c0.444,0,0.966-0.087,1.555-0.259L495.596,177.515z
		 M424.458,203.284V158.76c0-9.039,4.646-11.853,11.077-15.746l60.079-36.264c4.008-2.761,9.28-2.201,12.627,1.347
		c2.15,2.281,4.607,6.788,4.109,15.067v44.525c0,8.337-4.949,11.605-9.736,14.764c-0.778,0.513-1.594,1.051-2.659,1.782
		l-58.96,35.595l-0.793,0.367c-1.576,0.53-3.089,0.8-4.498,0.8C431.504,220.997,424.458,218.695,424.458,203.284"/>
	<path clip-path="url(#SVGID_2_)" d="M413.203,404.833c-15.812-3.429-27.767,6.617-39.408,11.585
		c-7.827,2.346-31.313,6.295-98.34,3.729c-93.854-3.591-129.442-1.915-129.79-1.898c-0.496,0.025-0.949,0.261-1.217,0.637
		l-7.202,10.061c-0.306,0.428-0.328,0.973-0.057,1.42c0.272,0.447,0.793,0.725,1.359,0.725h9.603c0.03,0,0.06-0.001,0.09-0.003
		l52.777-2.767l77.954-0.539l39.583,1.079c0.026,0,0.053,0.001,0.079,0l28.777-0.54h18.813l4.798,0.024
		c5.596,1.012,12.007,1.272,15.327,0.545c8.414-1.844,6.664-6.43,11.886-10.142c9.867-8.734,27.157-0.209,39.227-0.464
		C433.256,411.584,422.17,406.778,413.203,404.833"/>
	<path clip-path="url(#SVGID_2_)" d="M703.917,411.786c-0.272-0.447-0.793-0.725-1.359-0.725h-9.603c-0.03,0-0.06,0.001-0.09,0.002
		l-52.776,2.767l-77.955,0.539l-39.583-1.078c-0.026,0-0.052-0.001-0.079,0l-28.777,0.539h-18.814l-4.797-0.023
		c-5.596-1.013-12.007-1.273-15.327-0.545c-8.414,1.843-6.644,5.758-11.886,10.142c-9.866,8.733-27.157,0.209-39.227,0.463
		c4.206,6.701,15.292,11.507,24.259,13.453c17.131,3.714,29.735-8.385,42.317-12.71c2.209-0.5,5.275-1.047,9.493-1.554
		c12.484-1.501,37.525-2.903,85.938-1.051c93.855,3.591,129.441,1.916,129.79,1.898c0.496-0.024,0.948-0.261,1.217-0.636
		l7.202-10.062C704.167,412.777,704.188,412.233,703.917,411.786"/>
</g>
</svg>
