<?xml version="1.0" encoding="utf-8"?>
<!-- Generator: Adobe Illustrator 15.0.2, SVG Export Plug-In . SVG Version: 6.00 Build 0)  -->
<!DOCTYPE svg PUBLIC "-//W3C//DTD SVG 1.1//EN" "http://www.w3.org/Graphics/SVG/1.1/DTD/svg11.dtd">
<svg version="1.1" id="Ebene_1" xmlns="http://www.w3.org/2000/svg" xmlns:xlink="http://www.w3.org/1999/xlink" x="0px" y="0px"
	 width="662.295px" height="437.918px" viewBox="0 0 662.295 437.918" enable-background="new 0 0 662.295 437.918"
	 xml:space="preserve">
<g>
	<defs>
		<rect id="SVGID_1_" y="3.33" width="662.295" height="431.141"/>
	</defs>
	<clipPath id="SVGID_2_">
		<use xlink:href="#SVGID_1_"  overflow="visible"/>
	</clipPath>
	<path clip-path="url(#SVGID_2_)" d="M636.186,252.951c-6.893-17.747-13.783-35.577-20.676-53.48h-4.789l-43.676,106.956h4.627
		l37.969-92.602c5.965,15.542,11.934,30.971,17.904,46.304c5.965,15.332,11.982,30.762,18.057,46.298h11.418
		C650.023,288.528,643.078,270.698,636.186,252.951 M488.641,199.47H476.76l8.029,11.734v95.38h4.316v-88.899l60.498,88.899h6.018
		v-8.803V199.47h-4.32v91.983L488.641,199.47z M398.359,199.47h-11.882l8.025,11.734v95.38h4.321v-88.899l60.499,88.899h6.018
		v-8.803V199.47h-4.32v91.983L398.359,199.47z M362.709,252.951c-6.892-17.747-13.789-35.577-20.682-53.48h-4.784l-43.675,106.956
		h4.632l37.964-92.602c5.965,15.542,11.938,30.971,17.904,46.304c5.966,15.332,11.983,30.762,18.057,46.298h11.418
		C376.546,288.528,369.602,270.698,362.709,252.951 M255.602,254.879c3.396,0,6.636,0.595,9.722,1.775
		c3.092,1.181,5.764,2.829,8.027,4.938c2.261,2.112,4.065,4.605,5.403,7.487c1.336,2.882,2.007,6.018,2.007,9.415
		c0,3.395-0.671,6.508-2.007,9.337c-1.338,2.83-3.142,5.27-5.403,7.33c-2.263,2.055-4.935,3.651-8.027,4.784
		c-3.085,1.133-6.326,1.697-9.722,1.697h-28.553v-46.763H255.602z M246.033,203.949c3.188,0,6.197,0.621,9.026,1.85
		c2.832,1.237,5.277,2.912,7.332,5.016c2.06,2.117,3.708,4.557,4.94,7.334c1.235,2.776,1.854,5.759,1.854,8.952
		s-0.619,6.201-1.854,9.026c-1.231,2.834-2.88,5.3-4.94,7.413c-2.055,2.108-4.5,3.779-7.332,5.016
		c-2.83,1.229-5.838,1.845-9.026,1.845h-18.984v-46.452H246.033z M216.399,306.584h10.649h34.729c3.909,0,7.587-0.752,11.036-2.238
		c3.443-1.492,6.426-3.498,8.952-6.022c2.517-2.52,4.522-5.477,6.018-8.874c1.487-3.397,2.234-7.045,2.234-10.955
		c0-3.599-0.641-7.002-1.924-10.189c-1.291-3.188-3.038-6.018-5.25-8.488c-2.211-2.467-4.808-4.522-7.795-6.171
		c-2.983-1.644-6.225-2.676-9.724-3.087c3.91-2.471,7.076-5.764,9.494-9.879c2.415-4.115,3.628-8.642,3.628-13.579
		c0-3.805-0.722-7.382-2.163-10.728c-1.443-3.341-3.422-6.249-5.944-8.72c-2.521-2.467-5.454-4.421-8.794-5.865
		c-3.346-1.439-6.923-2.161-10.725-2.161h-34.42V306.584z M183.681,252.951c-6.89-17.747-13.786-35.577-20.679-53.48h-4.784
		l-43.675,106.956h4.631l37.966-92.602c5.965,15.542,11.935,30.971,17.9,46.304c5.969,15.332,11.987,30.762,18.059,46.298h11.421
		C197.52,288.528,190.573,270.698,183.681,252.951 M39.152,200.013c-6.74,2.935-12.606,6.896-17.594,11.886
		c-4.99,4.99-8.953,10.855-11.882,17.589c-2.933,6.744-4.401,13.968-4.401,21.691c0,7.61,1.469,14.791,4.401,21.525
		c2.93,6.74,6.892,12.635,11.882,17.673c4.987,5.042,10.854,9.027,17.594,11.96c6.739,2.93,13.968,4.395,21.685,4.395
		c7.714,0,14.943-1.465,21.683-4.395c6.739-2.934,12.602-6.918,17.596-11.96c4.988-5.038,8.952-10.933,11.884-17.673
		c2.928-6.734,4.397-13.915,4.397-21.525v-1.548h-1.697h-7.41H60.836v4.321h46.299c-0.308,6.791-1.751,13.119-4.32,18.983
		c-2.576,5.865-5.944,10.96-10.109,15.28c-4.167,4.321-8.979,7.746-14.432,10.265c-5.456,2.523-11.263,3.779-17.438,3.779
		c-6.383,0-12.4-1.334-18.057-4.011c-5.662-2.672-10.599-6.327-14.818-10.959c-4.219-4.631-7.536-10.032-9.95-16.207
		c-2.422-6.171-3.627-12.806-3.627-19.903c0-7.102,1.205-13.763,3.627-19.99c2.414-6.223,5.731-11.65,9.95-16.281
		c4.22-4.632,9.157-8.279,14.818-10.959c5.657-2.672,11.674-4.011,18.057-4.011c6.893,0,13.321,1.54,19.29,4.632
		c5.965,3.083,11.112,7.25,15.434,12.499l4.478-5.249c-5.042-5.037-10.909-9.004-17.596-11.882
		c-6.688-2.877-13.891-4.321-21.605-4.321C53.12,195.617,45.891,197.083,39.152,200.013"/>
	<path clip-path="url(#SVGID_2_)" d="M524.654,403.312v1.137c0.539,0.014,1.072,0.148,1.598,0.395
		c0.787,0.393,1.451,1.08,1.994,2.055l8.172,14.869v6.58c0,1.637-0.275,2.713-0.816,3.238c-0.547,0.523-1.654,0.809-3.314,0.852
		v1.137h15.525v-1.137c-1.602-0.043-2.682-0.311-3.264-0.795c-0.586-0.49-0.871-1.588-0.871-3.295v-8.242l8.551-13.928
		c0.363-0.57,0.814-0.988,1.355-1.27c0.42-0.174,0.988-0.328,1.707-0.459v-1.137h-9.842v1.137c1.443,0.102,2.375,0.24,2.799,0.416
		c0.625,0.262,0.936,0.787,0.936,1.574c0,0.506-0.254,1.299-0.76,2.361c-0.342,0.699-0.656,1.289-0.963,1.77l-4.811,7.873h-0.053
		l-5.92-10.758c-0.289-0.627-0.473-1.059-0.551-1.303c-0.084-0.236-0.123-0.459-0.123-0.666c0-0.469,0.219-0.77,0.654-0.918
		c0.439-0.145,1.428-0.262,2.975-0.35v-1.137H524.654z M476.658,433.574h25.934l1.811-10.145h-1.312
		c-1.32,3.441-2.898,5.75-4.73,6.945c-1.828,1.184-4.094,1.777-6.787,1.777c-1.506,0-2.512-0.156-3.027-0.48
		c-0.52-0.322-0.779-0.975-0.779-1.973v-21.16c0-1.771,0.303-2.879,0.906-3.328c0.607-0.447,1.82-0.705,3.643-0.762v-1.137h-15.656
		v1.137c1.299,0.07,2.195,0.244,2.693,0.52c0.842,0.451,1.266,1.326,1.266,2.629v21.688c0,1.316-0.451,2.203-1.334,2.672
		c-0.525,0.279-1.4,0.438-2.625,0.48V433.574z M426.824,433.574h16.117v-1.137c-1.662,0.031-2.896-0.145-3.709-0.516
		c-0.809-0.371-1.211-1.25-1.211-2.633v-10.43c2.4,0,4.07,0.555,4.998,1.662c0.918,1.105,1.539,2.867,1.846,5.291h1.137V410.68
		h-1.137c-0.438,2.336-1.084,4.033-1.938,5.096c-0.854,1.064-2.488,1.574-4.906,1.531v-10.365c0-0.818,0.178-1.373,0.537-1.676
		c0.35-0.293,1.189-0.443,2.502-0.443c3.525,0,5.947,0.559,7.26,1.674c1.311,1.113,2.242,3.061,2.799,5.848h1.094v-9.031h-25.389
		v1.137c1.344,0.088,2.262,0.266,2.752,0.547c0.822,0.451,1.229,1.324,1.229,2.625v21.668c0,1.281-0.416,2.16-1.246,2.625
		c-0.543,0.305-1.451,0.48-2.734,0.523V433.574z M383.29,418.137v-11.391c0-0.684,0.184-1.178,0.56-1.48
		c0.367-0.293,1.155-0.443,2.349-0.443c2.2,0,3.718,0.852,4.544,2.557c0.485,1.006,0.726,2.375,0.726,4.111
		c0,2.83-0.63,4.631-1.894,5.414C388.319,417.682,386.22,418.094,383.29,418.137 M372.094,433.574h15.131v-1.137
		c-1.574-0.057-2.623-0.359-3.148-0.91c-0.525-0.547-0.787-1.604-0.787-3.18v-8.768h0.018l10.443,13.994h9.351v-1.07
		c-0.412-0.031-0.753-0.098-1.032-0.211c-0.271-0.104-0.538-0.336-0.783-0.686l-9.517-12.748c1.605-0.289,3.118-0.963,4.553-2.012
		c1.881-1.4,2.816-3.316,2.816-5.752c0-3.291-1.789-5.576-5.379-6.844c-1.846-0.629-4.269-0.939-7.26-0.939h-14.405v1.137
		c1.53,0.131,2.514,0.373,2.956,0.717c0.651,0.525,0.979,1.65,0.979,3.373v19.809c0,1.664-0.279,2.744-0.831,3.238
		c-0.556,0.492-1.592,0.783-3.105,0.852V433.574z M346.003,433.574l1.819-9.314h-1.251c-1.396,3.045-3,5.127-4.806,6.232
		c-1.811,1.105-4.142,1.66-7,1.66c-1.513,0-2.517-0.174-3.004-0.51c-0.49-0.346-0.735-0.992-0.735-1.938v-10.846
		c2.552,0,4.321,0.52,5.307,1.564c0.98,1.041,1.631,2.84,1.956,5.389h1.137V410.68h-1.137c-0.481,2.539-1.176,4.283-2.078,5.236
		c-0.903,0.953-2.633,1.42-5.185,1.391v-10.365c0-0.844,0.188-1.408,0.56-1.697c0.372-0.279,1.24-0.422,2.611-0.422
		c3.601,0,6.085,0.533,7.45,1.594c1.355,1.064,2.327,3.041,2.895,5.928h1.093v-9.031h-25.804v1.137
		c1.298,0.07,2.193,0.244,2.691,0.52c0.859,0.451,1.288,1.326,1.288,2.629v21.691c0,1.281-0.415,2.16-1.244,2.625
		c-0.542,0.305-1.453,0.48-2.736,0.523v1.137H346.003z M267.986,412.344h1.291c0.277-3.201,1.487-5.389,3.631-6.557
		c1.164-0.631,2.843-0.971,5.03-1.031v23.588c0,1.637-0.287,2.729-0.866,3.275c-0.577,0.543-1.736,0.818-3.488,0.818v1.137h15.965
		v-1.137c-1.822,0-3.022-0.27-3.595-0.809c-0.579-0.537-0.866-1.637-0.866-3.285v-23.588c2.23,0.061,3.906,0.4,5.029,1.031
		c1.999,1.137,3.208,3.324,3.628,6.557h1.29l-0.039-9.031h-26.964L267.986,412.344z M215.727,412.344h1.29
		c0.278-3.201,1.487-5.389,3.632-6.557c1.163-0.631,2.842-0.971,5.029-1.031v23.588c0,1.637-0.289,2.729-0.866,3.275
		c-0.573,0.543-1.737,0.818-3.488,0.818v1.137h15.964v-1.137c-1.824,0-3.022-0.27-3.597-0.809c-0.578-0.537-0.864-1.637-0.864-3.285
		v-23.588c2.23,0.061,3.906,0.4,5.03,1.031c1.996,1.137,3.206,3.324,3.627,6.557h1.291l-0.042-9.031H215.77L215.727,412.344z
		 M160.582,403.312v1.137c1.557,0.174,2.56,0.477,3.004,0.914c0.448,0.432,0.667,1.496,0.667,3.176v14.99
		c0,2.58,0.507,4.689,1.508,6.324c1.896,3.078,5.414,4.617,10.566,4.617c3.932,0,6.82-1.035,8.655-3.104
		c1.837-2.068,2.755-5.008,2.755-8.812V408.23c0-1.441,0.232-2.361,0.689-2.766c0.461-0.4,1.402-0.74,2.836-1.016v-1.137h-9.845
		v1.137c1.721,0.131,2.876,0.502,3.466,1.107c0.592,0.602,0.888,1.705,0.888,3.309v13.701c0,2.529-0.337,4.488-1.008,5.891
		c-1.209,2.551-3.534,3.828-6.973,3.828c-2.771,0-4.645-1.154-5.62-3.461c-0.542-1.24-0.812-3.004-0.812-5.281v-15.004
		c0-1.711,0.292-2.805,0.875-3.285c0.586-0.477,1.74-0.748,3.479-0.805v-1.137H160.582z M119.407,429.441v-11.195
		c2.434-0.043,4.22,0.254,5.357,0.896c1.88,1.051,2.821,3.166,2.821,6.342c0,2.129-0.424,3.77-1.282,4.92
		c-0.85,1.15-2.337,1.727-4.449,1.727c-1.034,0-1.734-0.318-2.097-0.961C119.539,430.807,119.423,430.229,119.407,429.441
		 M119.407,416.891v-10.059c0-0.816,0.179-1.381,0.546-1.691c0.364-0.314,1.013-0.473,1.944-0.473c1.765,0,2.956,0.58,3.58,1.748
		c0.616,1.168,0.924,2.604,0.924,4.309c0,2.305-0.474,3.904-1.418,4.811C124.034,416.439,122.176,416.891,119.407,416.891
		 M108.321,433.574h14.41c3.802,0,6.853-0.768,9.14-2.303c2.29-1.545,3.432-3.549,3.432-6.027c0-2.656-1.196-4.723-3.584-6.211
		c-1.227-0.756-2.667-1.297-4.33-1.617v-0.414c1.572-0.291,3.038-0.98,4.385-2.07c1.347-1.084,2.02-2.555,2.02-4.404
		c0-3.047-1.662-5.146-4.985-6.297c-1.765-0.613-3.976-0.918-6.645-0.918h-13.842v1.137c1.299,0.07,2.193,0.244,2.689,0.52
		c0.829,0.451,1.247,1.326,1.247,2.629v21.691c0,1.312-0.444,2.205-1.334,2.668c-0.524,0.279-1.392,0.438-2.602,0.48V433.574z"/>
	<path clip-path="url(#SVGID_2_)" d="M267.711,349c16.583-2.627,32.386-20.637,54.854-15.875
		c10.474,2.223,23.421,7.701,28.336,15.346c-14.099,0.293-34.293-9.432-45.816,0.529c-6.47,3.889-4.057,9.469-13.88,11.572
		C281.159,362.719,246.892,357.318,267.711,349"/>
	<path clip-path="url(#SVGID_2_)" d="M282.087,347.475c0,0-10.771,7.867-120.469,4.814c-110.781-3.092-151.393-1.617-151.393-1.617
		l-8.413,8.559h11.216l61.678-2.354l91.117-0.463l46.26,0.918l33.641-0.455h21.982l11.21,0.039L282.087,347.475z"/>

		<path clip-path="url(#SVGID_2_)" fill="none" stroke="#000000" stroke-width="0.81" stroke-linecap="round" stroke-linejoin="round" stroke-miterlimit="10" d="
		M282.087,347.475c0,0-10.771,7.867-120.469,4.814c-110.781-3.092-151.393-1.617-151.393-1.617l-8.413,8.559h11.216l61.678-2.354
		l91.117-0.463l46.26,0.918l33.641-0.455h21.982l11.21,0.039L282.087,347.475z"/>
	<path clip-path="url(#SVGID_2_)" d="M394.585,354.174c-16.578,2.541-32.383,19.965-54.854,15.359
		c-10.474-2.146-23.421-7.453-28.332-14.848c14.097-0.279,34.289,9.131,45.812-0.512c6.468-3.76,4.054-9.158,13.885-11.195
		C381.138,340.9,415.407,346.127,394.585,354.174"/>
	<path clip-path="url(#SVGID_2_)" d="M381.601,354.082c0,0,9.377-6.314,119.075-3.617c110.783,2.729,151.398,1.432,151.398,1.432
		l8.41-7.562h-11.213l-61.68,2.082l-91.119,0.406l-46.258-0.812l-33.64,0.406H394.59l-11.209-0.035L381.601,354.082z"/>

		<path clip-path="url(#SVGID_2_)" fill="none" stroke="#000000" stroke-width="0.81" stroke-linecap="round" stroke-linejoin="round" stroke-miterlimit="10" d="
		M381.601,354.082c0,0,9.377-6.314,119.075-3.617c110.783,2.729,151.398,1.432,151.398,1.432l8.41-7.562h-11.213l-61.68,2.082
		l-91.119,0.406l-46.258-0.812l-33.64,0.406H394.59l-11.209-0.035L381.601,354.082z"/>
	<path clip-path="url(#SVGID_2_)" d="M245.113,91.613c-5.598,2.777-9.764,5.589-9.764,12.918v36.871
		c0,14.017,8.209,15.529,11.738,15.529c1.38,0,2.876-0.209,4.439-0.629l56.17-26.843L245.113,91.613z"/>
	<path clip-path="url(#SVGID_2_)" d="M314.778,126.03c0.599-0.323,1.209-0.652,1.777-0.949c5.172-2.707,10.52-5.506,10.52-13.155
		V75.205c0.461-6.669-1.712-10.518-3.623-12.582c-2.106-2.265-4.944-3.512-7.99-3.512c-1.885,0-3.778,0.486-5.283,1.316
		l-57.967,27.77L314.778,126.03z"/>
</g>
<polygon fill="#FFFFFF" points="321.861,131.168 314.78,126.03 252.214,88.197 246.094,84.855 243.312,90.887 245.113,91.613
	307.696,129.463 319.079,137.199 "/>
<rect x="310.458" y="120.122" fill="#FFFFFF" width="10.469" height="6.77"/>
<g>
	<defs>
		<rect id="SVGID_3_" y="3.33" width="662.295" height="431.141"/>
	</defs>
	<clipPath id="SVGID_4_">
		<use xlink:href="#SVGID_3_"  overflow="visible"/>
	</clipPath>
	<path clip-path="url(#SVGID_4_)" d="M417.196,91.617l-62.586,37.851l56.162,26.834c1.565,0.42,3.062,0.629,4.443,0.629
		c3.524,0,11.729-1.513,11.729-15.529v-36.871C426.943,97.21,422.789,94.394,417.196,91.617"/>
	<path clip-path="url(#SVGID_4_)" d="M410.088,88.197l-57.967-27.774c-1.504-0.822-3.406-1.316-5.287-1.316
		c-3.048,0-5.886,1.251-7.99,3.516c-1.911,2.06-4.08,5.913-3.623,12.586v36.722c0,7.641,5.35,10.448,10.52,13.155
		c0.573,0.297,1.181,0.625,1.793,0.953L410.088,88.197z"/>
</g>
<polygon fill="#FFFFFF" points="417.196,91.617 420.375,90.292 417.593,84.265 410.093,88.202 347.525,126.039 347.892,126.039
	350.674,132.069 354.609,129.468 "/>
<rect x="341.394" y="121.81" fill="#FFFFFF" width="10.469" height="4.229"/>
<g>
	<defs>
		<rect id="SVGID_5_" y="3.33" width="662.295" height="431.141"/>
	</defs>
	<clipPath id="SVGID_6_">
		<use xlink:href="#SVGID_5_"  overflow="visible"/>
	</clipPath>
	<path clip-path="url(#SVGID_6_)" d="M322.897,105.83c0,7.548-1.712,16.776-10.91,13.675l-61.49-37.12
		c-6.243-4.342-10.905-6.123-10.905-13.68V22.271C238.808,9.098,245.626,5.246,250.498,8.6l61.49,37.12
		c7.411,4.519,10.91,6.123,10.91,13.675V105.83z"/>
	<path clip-path="url(#SVGID_6_)" d="M313.726,115.674c0.612,0.179,1.159,0.271,1.621,0.271c3.131,0,3.371-7.74,3.371-10.115V59.395
		c0-4.583-1.074-5.361-7.521-9.267l-1.384-0.844L248.34,12.172c-1.316-0.879-1.8-0.678-2.559,0.118
		c-0.573,0.608-2.407,3.11-2.019,9.734l0.009,46.681c0,4.023,1.433,5.147,6.397,8.423c0.867,0.569,1.77,1.172,2.716,1.828
		L313.726,115.674z M315.347,124.302c-1.47,0-3.046-0.279-4.688-0.834l-0.829-0.38l-61.49-37.121
		c-1.111-0.766-1.962-1.325-2.772-1.858c-4.992-3.297-10.152-6.705-10.152-15.403V22.271c-0.519-8.633,2.042-13.33,4.281-15.713
		c3.495-3.7,8.994-4.282,13.17-1.399l62.661,37.815c6.704,4.063,11.549,6.997,11.549,16.421v46.436
		C327.076,121.902,319.727,124.302,315.347,124.302"/>
	<path clip-path="url(#SVGID_6_)" d="M339.399,105.83c0,7.548,1.714,16.776,10.907,13.675l61.492-37.12
		c6.24-4.342,10.903-6.123,10.903-13.68V22.271c0.783-13.172-6.027-17.025-10.903-13.671l-61.492,37.12
		c-7.408,4.519-10.907,6.123-10.907,13.675V105.83z"/>
	<path clip-path="url(#SVGID_6_)" d="M409.412,78.957c0.943-0.661,1.849-1.259,2.716-1.828c4.968-3.275,6.397-4.399,6.397-8.423
		l0.009-46.681c0.389-6.629-1.447-9.126-2.021-9.73c-0.757-0.805-1.238-1.005-2.559-0.123l-61.47,37.111l-1.382,0.84
		c-6.451,3.906-7.522,4.688-7.522,9.271v46.436c0,2.375,0.236,10.115,3.368,10.115c0.463,0,1.01-0.092,1.623-0.271L409.412,78.957z
		 M335.221,105.83V59.395c0-9.424,4.843-12.358,11.552-16.421l62.655-37.82c4.177-2.878,9.678-2.296,13.173,1.408
		c2.238,2.379,4.805,7.076,4.285,15.709v46.435c0,8.698-5.166,12.105-10.159,15.403c-0.81,0.529-1.662,1.093-2.773,1.858
		l-61.488,37.116l-0.822,0.389c-1.645,0.551-3.228,0.831-4.697,0.831C342.57,124.302,335.221,121.902,335.221,105.83"/>
</g>
</svg>
