<?xml version="1.0" encoding="utf-8"?>
<!-- Generator: Adobe Illustrator 21.1.0, SVG Export Plug-In . SVG Version: 6.00 Build 0)  -->
<svg version="1.1" id="图层_1" xmlns="http://www.w3.org/2000/svg" xmlns:xlink="http://www.w3.org/1999/xlink" x="0px" y="0px"
	 viewBox="0 0 651.969 323.15" enable-background="new 0 0 651.969 323.15" xml:space="preserve">
<g>
	<g>
		<path id="XMLID_7_" fill="#ffffff" d="M201.618,90.552c-2.374,2.181-4.779,4.338-7.125,6.556
			c-8.31,7.857-14.554,17.007-16.753,28.404c-3.046,15.787,0.197,30.265,9.77,43.25c4.786,6.492,10.5,11.882,18.1,14.98
			c0.886,0.361,1.787,0.682,2.881,1.098c-0.99,2.692-1.865,5.342-2.927,7.915c-6.194,15.003-14.246,28.88-25.229,40.923
			c-2.044,2.241-4.353,4.274-6.716,6.186c-8.027,6.495-17.019,8.995-27.151,6.043c-5.057-1.474-10.061-3.132-15.094-4.688
			c-5.188-1.604-10.436-2.891-15.908-3.022c-6.772-0.162-13.044,1.869-19.294,4.173c-4.753,1.752-9.529,3.566-14.441,4.733
			c-7.728,1.837-14.718-0.545-21.133-4.885c-6.47-4.376-11.585-10.122-16.015-16.448c-11.105-15.857-19.565-33.01-24.752-51.713
			c-4.613-16.634-5.907-33.509-3.314-50.597c2.288-15.072,7.905-28.671,18.516-39.909c10.992-11.642,24.515-16.427,40.38-14.854
			c7.898,0.783,15.441,3.073,23.013,5.275c3.156,0.918,6.377,1.608,9.565,2.416c4.559,1.156,9.061,0.631,13.469-0.662
			c6.215-1.824,12.357-3.891,18.566-5.735c9.231-2.742,18.597-3.526,28.121-1.682c12.324,2.386,22.06,9.022,30.214,18.283
			c1.023,1.161,2.023,2.342,3.028,3.519C201.479,90.216,201.522,90.363,201.618,90.552z"/>
		<path id="XMLID_6_" fill="#ffffff" d="M155.295,14.659c0.131,2.707,0.51,5.259,0.335,7.771
			c-0.956,13.71-6.343,25.496-15.807,35.425c-4.273,4.483-8.985,8.419-14.818,10.723c-4.963,1.96-10.238,2.384-15.502,2.768
			c-0.08,0.006-0.168-0.084-0.251-0.13C109.983,40.611,125.433,20.813,155.295,14.659z"/>
	</g>
	<g>
		<path fill="#ffffff" d="M267.412,51.046c12.217-2.036,28.216-3.781,48.578-3.781c25.016,0,43.342,5.817,54.977,16.289
			c10.763,9.308,17.163,23.562,17.163,41.015c0,17.745-5.236,31.707-15.126,41.888c-13.381,14.253-35.198,21.525-59.923,21.525
			c-7.563,0-14.544-0.29-20.362-1.746v78.54h-25.306V51.046z M292.718,145.584c5.527,1.455,12.509,2.036,20.944,2.036
			c30.543,0,49.16-14.834,49.16-41.887c0-25.889-18.325-38.397-46.25-38.397c-11.054,0-19.49,0.872-23.853,2.036V145.584z"/>
		<path fill="#ffffff" d="M479.445,244.777l-2.036-17.745h-0.873c-7.853,11.054-22.98,20.944-43.051,20.944
			c-28.507,0-43.052-20.071-43.052-40.433c0-34.034,30.252-52.651,84.649-52.359v-2.909c0-11.636-3.2-32.58-31.998-32.58
			c-13.09,0-26.761,4.073-36.652,10.472l-5.817-16.871c11.636-7.563,28.507-12.508,46.25-12.508
			c43.052,0,53.524,29.379,53.524,57.596v52.651c0,12.217,0.582,24.144,2.326,33.742H479.445z M475.663,172.927
			c-27.925-0.582-59.632,4.363-59.632,31.707c0,16.581,11.053,24.435,24.144,24.435c18.325,0,29.961-11.636,34.033-23.562
			c0.873-2.618,1.455-5.527,1.455-8.145V172.927z"/>
		<path fill="#ffffff" d="M534.39,103.987l30.832,83.194c3.201,9.308,6.692,20.362,9.019,28.798h0.581
			c2.618-8.436,5.528-19.199,9.017-29.38l27.926-82.612h27.053l-38.397,100.356c-18.326,48.287-30.834,73.013-48.287,88.139
			c-12.508,11.054-25.015,15.417-31.414,16.581l-6.401-21.526c6.401-2.036,14.835-6.109,22.397-12.508
			c6.982-5.527,15.709-15.417,21.527-28.507c1.164-2.618,2.035-4.655,2.035-6.109c0-1.454-0.581-3.491-1.745-6.691l-52.068-129.735
			H534.39z"/>
	</g>
</g>
</svg>
