<?xml version="1.0" encoding="utf-8"?>
<!-- Generator: Adobe Illustrator 15.0.2, SVG Export Plug-In . SVG Version: 6.00 Build 0)  -->
<!DOCTYPE svg PUBLIC "-//W3C//DTD SVG 1.1//EN" "http://www.w3.org/Graphics/SVG/1.1/DTD/svg11.dtd">
<svg version="1.1" id="Ebene_1" xmlns="http://www.w3.org/2000/svg" xmlns:xlink="http://www.w3.org/1999/xlink" x="0px" y="0px"
	 width="744.263px" height="595.28px" viewBox="0 0 744.263 595.28" enable-background="new 0 0 744.263 595.28"
	 xml:space="preserve">
<g>
	<defs>
		<rect id="SVGID_1_" x="3.803" y="1.391" width="737.616" height="591.303"/>
	</defs>
	<clipPath id="SVGID_2_">
		<use xlink:href="#SVGID_1_"  overflow="visible"/>
	</clipPath>
	<g clip-path="url(#SVGID_2_)">
		<defs>
			<rect id="SVGID_3_" x="3.803" y="1.391" width="737.616" height="591.303"/>
		</defs>
		<clipPath id="SVGID_4_">
			<use xlink:href="#SVGID_3_"  overflow="visible"/>
		</clipPath>
		<g opacity="0.21" clip-path="url(#SVGID_4_)">
			<g>
				<defs>
					<rect id="SVGID_5_" x="-48.469" y="-1.684" width="842.16" height="597.453"/>
				</defs>
				<clipPath id="SVGID_6_">
					<use xlink:href="#SVGID_5_"  overflow="visible"/>
				</clipPath>
				<path clip-path="url(#SVGID_6_)" fill="#FFFFFF" d="M19.91,532.909c0,23.08,6.568,51.29,42.034,41.82l236.89-113.486
					c24.057-13.282,42.01-18.727,42.01-41.804V277.5c3.019-40.288-23.241-52.053-42.01-41.81L61.944,349.158
					c-28.574,13.82-42.034,18.717-42.034,41.81V532.909z"/>
				<path clip-path="url(#SVGID_6_)" fill="#9C9E9F" d="M312.23,248.277c-1.885,0-3.853,0.529-5.686,1.535L63.648,366.189
					c-26.624,12.783-27.651,14.575-27.651,24.775v141.944c0,27.609,9.448,27.609,13.009,27.609c2.16,0,4.648-0.331,7.426-0.998
					L291.88,446.733c2.807-1.578,6.305-3.408,9.626-5.149c20.425-10.697,23.25-13.391,23.25-22.145l0.043-143.14
					c0.836-11.144-1.132-20.176-5.405-24.779C317.396,249.367,314.985,248.277,312.23,248.277 M49.006,592.693h-0.009
					c-13.584,0-45.177-5.832-45.177-59.784V390.965c0-31.745,20.259-41.467,45.908-53.782L291.88,221.177
					c5.794-3.186,13.094-5.075,20.35-5.075c11.73,0,22.656,4.808,30.75,13.528c7.366,7.939,15.721,22.764,13.952,48.443v141.366
					c0,29.433-20.594,40.221-40.503,50.647c-3.119,1.638-6.407,3.356-9.823,5.24L66.091,590.267
					C60.067,591.877,54.316,592.693,49.006,592.693"/>
				<path clip-path="url(#SVGID_6_)" fill="#FFFFFF" d="M340.844,395.968c0,29.066-6.576,64.586-41.988,52.655L62.141,305.713
					c-24.046-16.724-41.99-23.585-41.99-52.655V74.3c-3.005-50.728,23.221-65.55,41.99-52.647l236.715,142.902
					c28.53,17.41,41.988,23.578,41.988,52.656V395.968z"/>
				<path clip-path="url(#SVGID_6_)" fill="#9C9E9F" d="M305.539,433.865c2.367,0.69,4.461,1.042,6.243,1.042
					c12.043,0,12.975-29.808,12.975-38.942V217.214c0-17.659-4.125-20.654-28.959-35.697l-5.319-3.229L53.825,35.427
					c-5.07-3.402-6.934-2.622-9.846,0.451c-2.21,2.341-9.28,11.951-7.77,37.467l0.03,179.715c0,15.467,5.51,19.797,24.635,32.421
					c3.331,2.191,6.817,4.501,10.452,7.026L305.539,433.865z M311.781,467.083c-5.656,0-11.731-1.085-18.056-3.217l-3.186-1.469
					L53.825,319.487c-4.274-2.935-7.552-5.096-10.673-7.155c-19.218-12.683-39.087-25.8-39.087-59.271V74.297
					c-2.001-33.237,7.865-51.329,16.498-60.49C33.997-0.435,55.166-2.681,71.252,8.399l241.209,145.597
					c25.817,15.63,44.473,26.926,44.473,63.218v178.751C356.935,457.84,328.643,467.083,311.781,467.083"/>
				<path clip-path="url(#SVGID_6_)" fill="#FFFFFF" d="M725.312,532.909c0,23.08-6.569,51.29-42.031,41.82L446.389,461.243
					c-24.06-13.282-42.012-18.727-42.012-41.804V277.5c-3.014-40.288,23.241-52.053,42.012-41.81l236.893,113.468
					c28.571,13.82,42.031,18.717,42.031,41.81V532.909z"/>
				<path clip-path="url(#SVGID_6_)" fill="#9C9E9F" d="M425.828,251.521c-4.272,4.6-6.245,13.635-5.404,24.779l0.042,143.137
					c0,8.76,2.828,11.45,23.25,22.147c3.32,1.741,6.819,3.571,9.627,5.149l235.45,112.79c2.773,0.664,5.265,0.995,7.421,0.995
					c3.562,0,13.01,0,13.01-27.607V390.965c0-10.203-1.028-11.992-27.65-24.772L438.68,249.812
					c-1.831-1.006-3.803-1.535-5.688-1.535C430.237,248.277,427.828,249.367,425.828,251.521 M679.135,590.271L438.62,475.324
					c-3.417-1.876-6.705-3.602-9.831-5.234c-19.908-10.434-40.501-21.218-40.501-50.653v-141.36
					c-1.766-25.683,6.591-40.507,13.957-48.446c8.095-8.72,19.016-13.528,30.747-13.528c7.259,0,14.558,1.892,20.351,5.075
					l242.15,116.005c25.649,12.312,45.906,22.037,45.906,53.782v141.946c0,53.954-31.589,59.785-45.172,59.785h-0.014
					C690.904,592.696,685.16,591.877,679.135,590.271"/>
				<path clip-path="url(#SVGID_6_)" fill="#FFFFFF" d="M404.377,395.968c0,29.066,6.579,64.586,41.99,52.655l236.716-142.91
					c24.045-16.724,41.99-23.585,41.99-52.655V74.3c3.004-50.728-23.22-65.55-41.99-52.647L446.367,164.555
					c-28.532,17.41-41.99,23.578-41.99,52.656V395.968z"/>
				<path clip-path="url(#SVGID_6_)" fill="#9C9E9F" d="M673.898,292.508c3.633-2.525,7.123-4.835,10.449-7.029
					c19.128-12.618,24.638-16.951,24.638-32.421l0.029-179.712c1.508-25.52-5.561-35.129-7.773-37.467
					c-2.911-3.075-4.773-3.856-9.843-0.455L454.745,178.289l-5.32,3.231c-24.833,15.038-28.959,18.035-28.959,35.691v178.757
					c0,9.132,0.932,38.939,12.979,38.939c1.78,0,3.873-0.352,6.242-1.042L673.898,292.508z M388.291,395.968V217.211
					c0-36.289,18.656-47.585,44.472-63.217L673.971,8.402c16.086-11.083,37.252-8.837,50.691,5.408
					c8.63,9.158,18.498,27.25,16.498,60.49v178.757c0,33.474-19.869,46.595-39.091,59.276c-3.122,2.058-6.398,4.223-10.671,7.153
					L454.682,462.395l-3.183,1.475c-6.326,2.129-12.398,3.217-18.055,3.217C416.581,467.086,388.291,457.842,388.291,395.968"/>
			</g>
		</g>
	</g>
</g>
</svg>
