<?xml version="1.0" encoding="utf-8"?>
<!-- Generator: Adobe Illustrator 21.1.0, SVG Export Plug-In . SVG Version: 6.00 Build 0)  -->
<svg version="1.1" xmlns="http://www.w3.org/2000/svg" xmlns:xlink="http://www.w3.org/1999/xlink" x="0px" y="0px"
	 viewBox="0 0 429.89 227.214" enable-background="new 0 0 429.89 227.214" xml:space="preserve">
<g id="BG_LAYER" display="none">
	<rect x="-206" y="485.967" display="inline" fill="#BCCF00" width="841.89" height="595.28"/>
</g>
<g id="Layer_1">
	<path fill="#BCCF00" d="M362.408,71.889l-12.794-0.004c-1.395,0-2.526-1.132-2.526-2.528l0.004-12.952
		c0-1.395,1.132-2.526,2.527-2.526l12.794,0.004c1.395,0,2.526,1.132,2.526,2.528l-0.004,12.952
		C364.935,70.759,363.804,71.89,362.408,71.889z"/>
	<path fill="#BCCF00" d="M345.36,53.881l-8.689-0.003c-0.948,0-1.716-0.769-1.715-1.717l0.003-8.797
		c0-0.948,0.769-1.716,1.717-1.715l8.689,0.003c0.948,0,1.716,0.769,1.715,1.717l-0.003,8.797
		C347.076,53.113,346.308,53.881,345.36,53.881z"/>
	<linearGradient id="SVGID_1_" gradientUnits="userSpaceOnUse" x1="205.3223" y1="100.5167" x2="205.3223" y2="210.6879">
		<stop  offset="0" style="stop-color:#BCCF00"/>
		<stop  offset="1" style="stop-color:#438F29"/>
	</linearGradient>
<!--	url(#SVGID_1_)-->
	<path fill="#BCCF00" d="M108.71,77.662H90.103c-9.943,0-14.377,4.434-14.377,14.377v63.865c0,3.841,1.233,5.074,5.074,5.074
		h1.257c3.841,0,5.074-1.233,5.074-5.074v-24.847h21.578c19.158,0,28.081-8.484,28.081-26.698
		C136.791,86.146,127.868,77.662,108.71,77.662z M125.385,104.361c0,10.407-2.657,16.046-16.675,16.046H87.132V93.549
		c0-3.724,1.385-5.109,5.109-5.109h16.469C119.271,88.439,125.385,91.045,125.385,104.361z M160.755,95.976
		c-7.374,0-11.995,0.925-13.748,1.276c-3.103,0.675-4.401,1.526-4.401,5.056v1.006c0,1.382,0.205,2.34,0.644,3.015
		c0.511,0.785,1.335,1.183,2.449,1.183c0.544,0,1.173-0.091,1.925-0.279c1.773-0.443,7.438-1.359,13.635-1.359
		c11.13,0,15.669,3.083,15.669,10.641v6.743h-14.035c-18.043,0-26.446,6.087-26.446,19.155c0,12.676,8.678,19.657,24.435,19.657
		c18.725,0,27.075-6.373,27.075-20.663v-24.892C187.956,102.694,179.058,95.976,160.755,95.976z M176.927,132.275v8.755
		c0,7.137-2.646,11.269-16.172,11.269c-8.936,0-13.281-3.234-13.281-9.886c0-7.296,4.358-10.138,15.543-10.138H176.927z
		 M249.912,102.945l-14.462,57.845c-4.239,16.957-11.482,24.235-25,25.12c-0.354,0.031-0.683,0.047-0.988,0.047
		c-2.912,0-3.833-1.608-4.373-4.202l-0.249-1.121c-0.247-1.184-0.404-2.509,0.286-3.434c0.666-0.892,1.859-1.155,3.696-1.308
		c9.053-0.929,12.124-5.116,15.141-14.607c-1.429,0.482-3.146,0.74-5.004,0.74c-9.949,0-12.613-6.93-14.853-15.302l-11.942-43.746
		c-0.4-1.485-0.662-2.996,0.114-4.009c0.775-1.011,2.284-1.151,3.801-1.151h1.006c3.757,0,5.2,1.108,6.178,4.741l11.817,43.371
		c1.529,5.41,3.063,6.325,6.897,6.325c3.132,0,4.96-0.975,6.263-6.305l10.434-43.37c0.831-3.603,2.304-4.762,6.058-4.762h1.131
		c1.507,0,3.01,0.138,3.805,1.136C250.462,99.95,250.255,101.461,249.912,102.945z M334.919,86.046v16.685v17.553v9.618
		c0,7.055-1.591,13.028-4.665,17.843c-5.937,9.33-17.438,14.3-33.788,14.3c-0.02,0-0.04-0.001-0.06-0.001s-0.04,0.001-0.06,0.001
		c-16.35,0-27.851-4.97-33.788-14.3c-3.075-4.814-4.665-10.788-4.665-17.843v-9.618v-17.553V86.046
		c0-7.085,2.892-8.368,10.671-8.368h2.449c7.779,0,10.671,1.283,10.671,8.368v16.579c0.001,0.035,0.005,0.07,0.005,0.105v3.633
		c0.002,0.126,0.01,0.244,0.01,0.373v23.165c0,2.832,0.546,5.086,1.673,6.837c2.121,3.265,6.319,4.749,13.034,4.758
		c6.718-0.009,10.917-1.494,13.037-4.762c1.126-1.75,1.671-4.003,1.671-6.833v-23.165c0-0.129,0.008-0.247,0.01-0.373v-3.633
		c0-0.036,0.004-0.07,0.005-0.105V86.046c0-7.085,2.892-8.368,10.671-8.368h2.449C332.026,77.678,334.919,78.961,334.919,86.046z"/>
	<path fill="#BCCF00" d="M343.674,96.122l-17.225-0.006c-1.879-0.001-3.401-1.524-3.401-3.403l0.006-17.439
		c0.001-1.879,1.524-3.401,3.403-3.401l17.225,0.006c1.879,0.001,3.401,1.524,3.401,3.403l-0.006,17.439
		C347.076,94.6,345.553,96.122,343.674,96.122z"/>
</g>
</svg>
